<svg width="24" height="25" viewBox="0 0 24 25" fill="none" xmlns="http://www.w3.org/2000/svg">
<rect width="24" height="25" fill="#EBEBEB"/>
<g id="Mobile Responsive">
<g id="Hero" clip-path="url(#clip0_0_1)">
<rect width="375" height="443" transform="translate(-40 -194)" fill="white"/>
<g id="Frame 52">
<g clip-path="url(#clip1_0_1)">
<rect x="-24" y="-138" width="343" height="331" rx="16" fill="#268C76"/>
<g id="Group">
<path id="Vector" fill-rule="evenodd" clip-rule="evenodd" d="M676.378 -4.08743C679.114 -7.15044 683.219 -16.2769 682.372 -22.9656C681.916 -26.9037 678.593 -30.3418 677.16 -32.9672C677.42 -34.78 679.114 -35.3426 678.723 -37.2179C678.202 -40.0934 674.749 -38.7182 672.338 -39.9059C670.774 -40.7185 665.366 -46.4694 664.323 -48.3447C663.867 -49.1574 663.932 -50.4076 663.932 -51.0327C662.89 -52.0954 661.456 -52.783 660.348 -53.7206C660.022 -55.2834 660.935 -55.721 660.739 -57.1587C660.218 -58.909 657.677 -58.8465 655.917 -59.4716C655.657 -63.2847 653.05 -65.4726 655.917 -68.2855C655.526 -70.2859 654.093 -71.161 652.334 -71.7236C650.314 -71.4736 650.705 -68.9107 649.532 -67.848C644.71 -66.3477 640.214 -64.4724 637.477 -60.9093C635.783 -62.2846 634.675 -65.7226 631.026 -63.9723C629.919 -65.035 629.788 -67.1604 628.224 -67.848C625.097 -66.0352 621.122 -61.4719 618.972 -67.0978C616.952 -67.2854 617.147 -65.2225 614.997 -65.5351C613.238 -68.8481 610.957 -73.7865 613.368 -77.8496C612.586 -79.5374 609.98 -79.4749 607.373 -79.4124C606.266 -81.1002 602.942 -84.2882 601.379 -80.9751C600.857 -78.4122 605.353 -79.0373 604.18 -77.0995C601.379 -76.3494 594.993 -75.5993 592.582 -77.4746C593.69 -80.5376 596.296 -85.7884 592.973 -88.6639C592.777 -90.9143 595.254 -90.6017 595.384 -92.477C593.234 -94.8524 587.239 -93.9148 582.938 -95.165C581.309 -95.6651 580.397 -97.3528 578.964 -97.4779C575.64 -97.7904 574.011 -95.2275 572.513 -92.8521C570.949 -94.2898 569.19 -92.7896 566.909 -93.6022C563.26 -94.9775 560.458 -100.728 556.874 -95.165C554.268 -95.2275 551.792 -95.415 550.88 -97.1028C551.727 -100.416 554.333 -102.041 554.529 -105.979C550.489 -105.167 543.582 -108.23 540.454 -104.041C539.737 -100.916 542.735 -100.166 542.083 -98.2905C540.519 -98.228 539.151 -98.2905 538.043 -98.6656C537.978 -103.104 536.088 -105.792 532.439 -106.729C530.159 -106.604 530.876 -103.604 528.856 -103.291C527.357 -102.854 527.683 -104.229 526.445 -104.041C526.51 -106.042 527.096 -107.48 526.836 -109.792C524.816 -110.105 520.971 -108.792 519.603 -111.355C520.385 -117.231 530.419 -115.293 531.266 -121.357C531.592 -123.67 529.377 -124.857 529.247 -127.108C529.051 -129.858 531.397 -131.046 530.876 -134.421C529.247 -135.922 528.465 -134.171 526.054 -134.421C524.49 -137.047 522.144 -138.922 517.257 -138.297C515.302 -140.61 514.26 -144.111 511.262 -144.423C505.659 -145.048 506.245 -137.359 502.01 -135.172C498.23 -135.922 493.083 -136.047 491.193 -133.234C489.564 -130.921 491.91 -128.108 489.173 -126.67C486.371 -127.358 489.695 -131.546 486.762 -132.046C481.875 -130.483 484.938 -126.358 486.762 -124.357C483.244 -124.17 481.224 -122.482 478.357 -121.669C478.813 -123.357 479.399 -125.045 479.139 -127.42C476.597 -128.483 473.079 -130.608 469.886 -130.483C468.387 -130.421 465.26 -127.67 463.891 -128.17C458.418 -130.046 469.169 -140.235 458.287 -140.11C454.639 -138.985 459.395 -132.109 455.095 -131.671C453.922 -132.984 453.857 -135.359 453.466 -137.422C448.644 -136.234 453.4 -119.607 443.04 -124.357C444.278 -130.671 433.462 -132.171 438.218 -139.36C437.827 -141.423 436.394 -142.485 434.634 -143.235C432.224 -142.985 432.68 -139.985 431.442 -138.61C425.773 -137.797 422.58 -134.546 418.605 -132.046C418.41 -136.922 412.35 -135.797 411.307 -139.547C407.723 -139.672 406.941 -137.109 403.683 -136.859C401.664 -139.672 404.074 -146.674 402.055 -149.549C398.145 -150.049 395.278 -150.987 390.847 -150.737C389.544 -151.612 389.674 -153.925 388.045 -154.55C380.487 -151.737 370.973 -157.425 366.803 -151.112C366.803 -147.174 369.279 -145.548 373.189 -145.361C372.993 -143.235 371.038 -142.86 370.778 -140.735C369.084 -140.985 368.302 -142.235 366.803 -142.673C364.522 -142.235 364.522 -139.735 362.372 -139.235C361.134 -141.235 360.548 -143.861 357.941 -144.611C354.814 -143.235 354.162 -139.485 352.728 -136.547C348.884 -137.359 347.646 -133.796 345.105 -133.484C342.433 -133.171 340.413 -135.859 336.308 -135.047C335.722 -135.734 335.917 -137.234 335.07 -137.735C332.399 -137.735 331.291 -136.234 330.639 -134.296C330.118 -131.734 333.637 -133.109 333.05 -130.421C330.835 -129.671 324.188 -129.608 321.843 -130.421C320.474 -131.921 323.797 -134.234 321.061 -135.047C317.607 -134.609 319.627 -128.983 317.477 -127.358C313.372 -127.42 311.808 -132.171 307.833 -131.233C303.012 -130.108 306.595 -121.482 305.031 -116.606C303.533 -115.043 299.949 -114.481 301.448 -111.23C299.819 -111.418 298.972 -112.418 297.864 -113.168C298.19 -115.543 300.079 -116.419 299.884 -119.294C299.754 -119.794 299.167 -119.919 299.102 -120.419C295.192 -121.232 295.258 -118.169 292.651 -118.106C289.589 -118.044 288.546 -123.045 283.007 -121.544C281.835 -122.92 284.245 -123.482 284.18 -124.982C282.551 -127.483 279.163 -127.733 280.206 -131.921C279.489 -133.296 277.208 -133.171 275.384 -133.484C275.123 -136.047 273.69 -137.359 271.344 -136.922C271.279 -139.047 272.777 -139.61 272.517 -141.923C270.757 -145.736 265.805 -143.861 266.131 -139.61C261.505 -136.859 257.4 -133.359 250.102 -134.234C248.212 -134.359 248.799 -136.859 246.909 -136.922C242.022 -134.797 239.481 -130.421 234.072 -128.858C232.769 -132.609 230.814 -135.734 229.251 -139.235C228.729 -140.235 231.401 -143.485 229.251 -144.986C227.165 -145.173 226.449 -144.048 224.82 -143.861C223.06 -146.611 218.564 -148.111 216.023 -144.986C212.635 -147.486 208.986 -146.986 204.816 -144.236C203.252 -143.235 202.274 -141.298 200.385 -140.36C196.019 -138.172 190.871 -139.047 190.35 -133.796C186.832 -133.796 184.355 -132.921 183.117 -130.733C184.486 -129.483 185.854 -128.233 187.939 -127.67C190.285 -127.92 188.721 -132.046 191.132 -132.296C193.543 -127.733 189.829 -123.232 186.31 -121.919C187.744 -114.106 170.607 -108.542 171.845 -120.357C174.125 -120.732 173.93 -118.731 175.82 -118.794C179.338 -120.357 182.987 -125.483 179.012 -128.796C175.82 -129.046 171.519 -129.858 168.587 -129.171C167.544 -127.358 168.847 -125.983 168.978 -124.17C164.873 -123.107 163.244 -128.671 160.572 -128.045C158.226 -127.483 159.269 -124.545 157.77 -122.294C155.75 -125.107 154.512 -128.608 151.776 -130.733C148.908 -131.358 146.889 -129.046 145.39 -129.608C140.894 -130.733 144.673 -134.922 144.152 -137.672C143.891 -139.172 142.523 -139.422 141.741 -140.735C140.307 -143.235 140.959 -146.611 138.939 -148.424C135.486 -147.549 133.27 -142.735 135.746 -139.547C134.117 -139.172 132.293 -139.047 131.315 -137.985C130.794 -136.797 130.794 -134.922 131.315 -133.734C130.794 -132.859 128.97 -133.171 128.122 -132.609C126.884 -127.17 131.12 -127.045 130.924 -122.607C127.666 -121.732 127.015 -119.669 123.692 -120.294C120.694 -120.857 120.303 -124.795 117.697 -124.545C115.807 -124.357 114.765 -122.857 114.895 -119.544C111.767 -117.044 110.79 -112.418 108.509 -109.167C102.906 -110.292 99.9734 -114.043 95.2819 -116.106C94.5 -130.921 78.7313 -111.168 77.6236 -107.229C75.9294 -106.729 74.7566 -106.792 73.6488 -106.104C68.4361 -102.791 71.8244 -94.2273 76.4507 -92.227C76.1249 -87.6637 75.9294 -83.038 72.0198 -81.8503C68.8922 -83.1005 66.8722 -85.3509 65.6342 -88.4139C64.3961 -89.2265 62.3762 -88.1638 61.2033 -87.6637C60.4214 -84.9758 63.2233 -85.7259 62.8323 -83.413C60.8123 -83.038 60.4214 -84.2257 59.2485 -84.6007C55.3389 -81.9128 51.3642 -79.6624 46.803 -76.912C45.174 -75.9118 43.7405 -73.3489 41.5902 -74.5991C40.1567 -76.3494 43.545 -76.1618 43.2192 -78.0372C39.8309 -78.6623 37.8109 -83.2255 33.9665 -81.1002C35.2045 -78.4122 37.8109 -77.0995 39.9612 -75.3492C39.5703 -73.849 38.7232 -72.6613 37.5503 -71.9111C35.4652 -72.8488 33.5755 -74.0365 29.9266 -73.4739C28.9492 -77.3495 20.4132 -90.6642 19.11 -78.0997C22.3029 -74.9116 28.6234 -74.6616 31.1646 -70.786C32.2723 -70.2234 34.2271 -70.3484 35.2045 -69.6608C35.4 -66.7853 33.4452 -65.9727 32.7936 -63.9098C35.4652 -62.5346 39.1141 -54.9708 42.8282 -54.2832C47.7152 -53.4081 48.3668 -60.0967 52.4719 -57.7213C52.8629 -55.5959 50.7126 -56.1585 50.452 -53.8457C49.8004 -46.782 60.8124 -47.7196 65.3084 -44.5941C69.9347 -45.4068 69.8696 -50.7201 72.9321 -53.033C73.1927 -55.846 69.9347 -55.2834 70.5212 -58.4089C72.4108 -60.2217 75.7991 -58.5339 77.2978 -57.6588C77.9494 -57.0337 77.6236 -55.4084 77.6888 -54.2207C82.5758 -54.0332 84.9215 -51.4078 86.4854 -48.0947C90.5253 -49.5949 93.3923 -47.5321 95.2819 -45.7818C101.081 -44.5941 102.58 -49.0324 106.098 -48.8448C106.685 -45.8443 105.121 -40.781 108.509 -39.5933C111.507 -39.9059 112.158 -42.5313 114.113 -43.844C117.371 -39.6558 122.128 -38.4681 128.97 -40.4059C131.771 -37.968 131.576 -32.9672 135.811 -33.4673C139.2 -33.9049 140.242 -40.9685 144.999 -39.2182C145.846 -35.5301 135.681 -33.9674 136.984 -29.2166C137.506 -27.4038 138.744 -27.2788 141.806 -27.2788C141.806 -24.5908 140.112 -23.5282 140.633 -20.3401C137.831 -19.9651 134.573 -19.34 134.247 -16.9021C133.922 -14.6517 135.486 -14.9017 136.267 -12.6513C133.009 -12.4013 130.142 -11.9012 127.862 -10.7135C126.754 -12.2763 127.797 -14.4641 129.1 -14.9642C126.95 -17.6522 126.493 -21.9654 124.278 -24.5908C117.958 -23.4656 118.674 -15.6518 114.634 -12.2763C112.354 -12.0262 113.136 -14.6517 111.051 -14.5892C109.291 -15.0267 109.747 -13.2765 108.249 -13.464C110.008 -18.2148 104.665 -18.6523 104.274 -21.9029C103.557 -27.2788 112.549 -28.904 108.705 -34.5925C106.229 -34.78 104.991 -33.7798 102.71 -33.8424C101.146 -35.1551 101.537 -38.3431 99.5173 -39.2182C97.1064 -39.3433 97.6277 -36.6553 96.3245 -35.7802C94.109 -36.9679 93.7181 -39.9684 89.8737 -39.6558C91.1768 -43.594 85.9641 -43.2189 86.2899 -47.3446C83.879 -47.3446 81.1422 -47.6571 80.2951 -46.2194C80.2951 -43.5315 82.1196 -44.094 81.9241 -41.5936C81.7938 -39.9059 79.6436 -37.5305 77.4933 -36.9679C76.7765 -36.7803 75.734 -37.7805 75.0824 -37.718C74.8869 -37.718 69.1528 -36.2803 67.8496 -35.7802C64.5916 -34.53 64.4613 -32.5296 62.6368 -29.2166C59.444 -30.1542 59.053 -33.7173 56.6421 -35.3426C52.3416 -33.9674 51.1035 -38.7182 46.9985 -38.0305C44.1966 -37.593 43.8708 -34.9675 41.7857 -33.0297C39.3096 -32.5921 39.1793 -34.3424 37.3548 -34.5925C34.8787 -34.7175 32.8588 -32.6547 31.3601 -33.0297C29.4053 -34.4675 30.4479 -37.4679 31.3601 -39.2182C30.8388 -41.9062 26.0821 -41.4061 25.3654 -39.2182C25.5609 -36.9679 29.275 -34.53 26.1473 -32.6547C23.4106 -32.7172 24.779 -36.7178 22.9545 -37.6555C18.7842 -37.2804 17.2204 -34.4049 15.7217 -31.5295C9.46638 -33.2798 7.44641 -26.7162 3.27618 -27.6538C0.60463 -28.2789 2.10332 -31.592 -1.9366 -31.5295C3.79747 -37.7805 -7.41003 -42.2187 -7.54034 -33.8424C-11.5151 -32.4046 -13.4047 -28.9665 -17.184 -27.2788C-20.2465 -29.4041 -23.9606 -28.654 -26.3716 -31.1544C-29.7599 -28.0914 -36.8623 -30.9669 -39.208 -26.9037C-42.1402 -27.9664 -42.9221 -31.0294 -44.4208 -33.4673C-43.7041 -34.905 -42.2706 -37.718 -44.0299 -39.2182C-46.2453 -39.5308 -46.4408 -37.9055 -48.4607 -38.0305C-50.0246 -39.0932 -51.0671 -40.9685 -53.2826 -41.0936C-55.498 -41.2186 -55.889 -39.5308 -58.1044 -38.7807C-61.0366 -37.843 -64.2294 -39.5308 -66.901 -39.1557C-69.4422 -38.7807 -70.2241 -36.0927 -72.5047 -34.905C-73.6124 -34.3424 -74.8505 -34.8425 -75.6976 -34.53C-77.8478 -33.8423 -78.8904 -31.592 -80.9104 -32.2171C-81.9529 -31.0294 -82.409 -29.3416 -82.9303 -27.5913C-86.7747 -29.0291 -89.1856 -26.2786 -90.945 -24.5283C-88.7947 -23.8407 -87.2309 -22.7155 -85.3412 -21.8404C-83.3864 -22.528 -84.038 -25.716 -82.9303 -27.2162C-79.6723 -24.6533 -82.4742 -20.5276 -83.3213 -17.5897C-86.6444 -17.7147 -88.7295 -16.652 -91.3359 -16.0269C-92.7043 -17.9022 -92.7694 -21.0277 -93.7468 -23.3406C-97.2655 -22.653 -100.523 -23.9657 -103.39 -24.0907C-104.563 -24.1532 -105.476 -23.3406 -106.583 -23.7157C-110.493 -24.9034 -110.037 -28.904 -112.578 -31.7795C-118.247 -30.4668 -119.029 -39.1557 -124.633 -37.1554C-127.891 -35.9677 -126.978 -29.5917 -124.242 -27.5288C-125.675 -22.2779 -126.522 -16.2144 -124.242 -12.1513C-125.089 -10.0259 -127.695 -11.2761 -129.063 -10.2134C-128.803 -7.15044 -125.936 -6.52534 -125.089 -4.08743C-125.349 -2.14961 -128.216 -2.7122 -129.063 -1.39949C-129.324 0.53833 -127.5 1.28845 -129.063 2.41365C-130.302 2.97624 -130.432 2.47615 -131.865 2.41365C-132.582 0.3508 -131.279 -2.52467 -133.038 -4.14995C-135.189 -5.33765 -138.056 -3.2748 -139.75 -4.52501C-142.161 -5.58768 -140.792 -8.90073 -143.724 -8.77571C-145.81 -8.6507 -145.94 -6.90041 -146.526 -4.14995C-148.872 -4.71254 -147.764 -8.58817 -149.719 -9.52583C-150.957 -9.52583 -152.13 -9.52583 -153.303 -9.52583C-153.107 -14.5267 -157.213 -20.2776 -161.709 -16.0269C-158.711 -7.33797 -167.117 -4.08743 -168.55 2.85121C-168.811 4.66402 -169.919 1.601 -171.352 2.10109C-173.568 2.60117 -176.109 2.7262 -177.347 4.03891C-179.171 3.97641 -178.846 1.85104 -180.54 1.72603C-183.342 3.53883 -185.948 9.28978 -188.163 14.0406C-189.402 16.6035 -192.529 17.7287 -192.594 19.4165C-192.66 21.9169 -189.988 22.4169 -188.163 23.6672C-186.665 26.7302 -184.971 29.5431 -181.322 30.6058C-180.344 31.981 -178.715 34.919 -176.109 36.7318C-170.57 40.67 -158.516 45.9208 -160.08 34.0439C-157.604 33.7313 -157.929 36.1067 -155.649 35.9817C-153.824 33.4813 -151.348 27.4803 -147.634 28.2929C-145.093 28.8555 -146.135 31.731 -144.05 33.2937C-140.597 32.6061 -138.186 35.6066 -135.189 35.2316C-132.908 34.919 -132.321 31.6685 -129.194 32.9187C-128.673 33.8563 -127.76 34.3564 -127.956 35.9817C-129.845 37.1069 -131.474 34.8565 -133.56 35.9817C-134.146 37.857 -132.973 40.545 -131.149 41.3576C-128.868 41.2326 -128.868 38.9197 -127.109 38.2946C-123.916 39.7948 -120.593 39.2322 -117.074 40.9825C-114.533 42.2327 -114.077 46.1709 -109.059 45.2332C-107.626 43.1079 -105.671 41.5451 -105.867 37.9195C-102.413 37.9195 -101.175 40.0449 -101.045 43.2954C-93.6165 45.0457 -88.2734 48.7338 -85.7973 55.2349C-81.4316 53.6096 -69.3771 59.7356 -70.9409 52.5469C-71.397 50.4216 -73.4821 50.5466 -76.1537 49.859C-76.284 47.1711 -73.417 47.3586 -73.3518 44.8582C-71.397 50.234 -65.7933 47.6711 -64.0991 43.733C-62.405 43.9205 -62.6004 45.9208 -60.9063 46.0459C-58.4302 45.7958 -57.8438 43.858 -56.0845 42.9828C-53.6084 42.6703 -54.1297 45.2332 -52.0445 45.2957C-48.3956 45.2957 -45.2679 42.1077 -42.857 45.2957C-40.837 43.3579 -40.3158 43.0453 -36.0152 42.2327C-34.1256 41.8577 -32.3663 40.0449 -31.1934 39.9198C-26.6973 39.4198 -22.2665 41.8577 -17.9659 41.045C-16.2718 43.0454 -12.8835 44.0455 -9.95126 46.0459C-6.6281 48.2962 -5.32492 51.6093 -2.32756 47.9837C-1.87144 43.4204 -5.06427 42.4203 -6.36748 39.5448C-3.10948 36.7318 -0.112122 41.045 2.88522 41.1075C5.75226 41.17 6.59933 39.2322 9.33606 38.0445C12.985 39.7948 13.8321 44.2956 16.5688 46.921C11.5515 48.1087 10.5089 53.172 7.3161 56.1725C2.95039 54.2347 5.88258 48.5462 8.09801 46.5459C3.99295 44.108 2.23363 49.984 -1.08952 50.7966C-1.35016 53.6096 -2.39272 56.7976 -1.48048 58.8605C-0.763718 60.6108 2.68976 62.9236 4.51422 62.7361C7.05547 62.4861 9.14056 57.7353 12.9198 57.7353C13.8321 58.6729 14.1579 60.1107 14.9398 61.1733C9.59671 61.5484 6.46902 64.1113 3.7323 66.9243C3.66714 68.6746 5.29614 68.7371 6.14322 69.6123C8.74962 68.1745 12.3986 66.6118 14.5489 69.6123C14.7443 78.9263 -0.763718 81.4267 -4.67331 73.863C-6.56294 73.7379 -7.54034 74.6756 -9.10419 73.863C-10.4725 73.2379 -10.7332 71.6126 -11.1241 69.9873C-14.6428 69.4247 -16.7931 67.4869 -20.7678 67.2994C-25.72 70.6749 -18.0962 73.0503 -18.7478 75.7383C-19.204 77.6761 -20.3768 76.4259 -21.9407 78.0511C-23.1787 79.3639 -23.4394 82.3644 -25.1335 84.2397C-29.2386 83.177 -32.1056 85.5524 -33.9301 82.6769C-32.8875 81.8018 -31.1282 82.4894 -30.3463 83.052C-27.5444 80.9266 -26.6322 75.2382 -30.3463 74.6131C-34.0604 73.988 -34.9075 79.989 -39.1429 77.6761C-40.2506 75.8008 -38.0352 75.2382 -37.97 73.4254C-40.6416 71.6126 -40.3158 66.9868 -42.4009 64.5489C-45.1376 64.9865 -45.6589 67.5494 -46.3756 69.9248C-48.0698 70.2374 -49.373 70.925 -51.5884 70.6749C-53.4129 68.6746 -53.8038 66.3617 -52.7613 63.3612C-55.3025 62.4861 -54.9116 65.1115 -57.1922 65.299C-59.9289 65.4866 -62.9262 61.3609 -65.9887 64.5489C-68.0739 64.2364 -68.2693 61.4859 -70.0287 60.6733C-72.8957 59.3605 -76.4143 60.7983 -81.2361 60.6733C-83.8425 60.6108 -86.7096 59.2355 -88.8598 59.4856C-91.3359 59.7981 -96.8093 62.236 -100.458 62.1735C-102.478 60.2357 -104.433 56.2976 -108.864 57.9228C-110.623 58.798 -108.929 62.9862 -110.102 64.4864C-111.731 65.174 -114.468 64.924 -115.706 64.1113C-117.465 63.9238 -117.791 66.4242 -119.289 65.299C-119.811 62.8611 -119.42 59.5481 -121.7 58.7354C-124.046 58.6729 -123.72 61.1108 -126.522 60.6733C-128.086 59.8606 -126.718 56.235 -127.695 54.9223C-129.129 52.2969 -136.036 52.2344 -136.948 55.2974C-140.923 53.3596 -144.181 52.797 -149.784 52.2344C-152.13 49.6089 -151.674 46.1709 -154.606 45.2957C-157.017 44.6081 -159.558 47.8586 -162.23 45.2957C-163.924 46.1084 -164.185 48.2962 -165.032 49.9215C-167.377 49.6089 -167.899 51.8593 -170.635 51.8593C-172.916 51.8593 -174.154 49.734 -176.63 50.2966C-180.084 51.1092 -178.78 56.235 -181.452 57.9853C-185.101 60.4232 -193.116 56.6101 -193.116 63.3612C-193.116 65.2365 -191.031 67.1743 -191.096 67.987C-191.291 70.1123 -194.484 70.7374 -194.289 72.6127C-194.093 74.5506 -192.725 75.2382 -189.858 74.9256C-187.316 81.7392 -174.089 82.5519 -166.987 79.5514C-165.879 81.1767 -161.709 79.864 -161.383 82.2393C-165.423 82.1143 -171.678 82.0518 -170.245 86.8651C-177.868 90.9908 -186.013 86.365 -190.705 83.427C-192.725 84.0521 -192.79 87.1776 -192.334 88.4279C-191.682 90.1156 -182.886 94.2413 -180.279 94.5539C-178.585 94.8039 -176.695 94.3038 -175.066 94.5539C-172.46 94.9289 -169.919 96.1166 -167.834 94.1788C-163.468 95.304 -160.731 97.8669 -160.601 103.055C-163.729 104.681 -164.771 108.244 -166.205 111.494C-164.706 112.869 -163.859 110.431 -162.23 110.744C-160.21 113.62 -158.842 117.12 -155.388 116.87C-152 116.683 -150.306 111.619 -146.591 111.494C-143.92 112.369 -142.617 114.182 -139.75 113.432C-135.645 112.369 -137.795 107.994 -137.339 104.618C-133.82 104.305 -133.885 107.431 -132.126 108.869C-130.888 109.869 -129.389 107.619 -128.086 108.869C-125.415 110.682 -125.48 114.182 -122.091 114.995C-117.856 116.057 -113.099 112.057 -110.037 115.37C-107.17 113.807 -97.461 100.305 -97.2003 112.307C-99.8719 114.057 -116.553 121.933 -103.586 123.871C-103.13 125.747 -102.478 127.372 -101.175 128.497C-98.699 129.06 -98.7641 127.247 -97.2003 126.934C-96.5487 131.622 -92.7043 131.873 -93.6165 137.311C-93.1604 138.686 -91.0753 138.499 -89.1857 138.499C-88.3386 132.685 -83.1258 128.997 -78.7601 125.434C-75.046 125.872 -71.5925 124.934 -69.5074 127.372C-63.643 125.684 -62.9914 118.995 -56.6709 117.745C-54.8464 120.183 -57.2573 121.371 -57.8438 123.496C-57.3225 125.559 -55.6935 126.559 -55.0419 128.497C-56.9315 131.31 -61.1018 131.873 -63.0565 134.623C-63.252 140.374 -61.623 144.625 -57.4528 145.375C-55.6283 145.75 -53.8038 144.562 -51.849 144.625C-48.2653 144.75 -45.0724 147 -41.8144 146.562C-41.0977 147.938 -41.6841 150.563 -40.5764 151.563C-38.1655 153.064 -35.4939 151.626 -32.5617 151.563C-32.1708 152.814 -31.845 154.189 -31.3237 155.439C-26.8928 156.314 -26.3715 160.94 -20.8981 160.815C-19.204 163.19 -17.4446 164.753 -17.7053 168.129C-16.3369 168.316 -15.4247 168.004 -14.5125 167.753C-13.7957 165.816 -17.5098 166.066 -16.1414 164.69C-5.06427 163.815 -13.7305 173.567 -19.7252 173.942C-20.2465 178.443 -17.3143 179.568 -14.1215 180.443C-11.5803 179.943 -12.8835 175.755 -10.5377 175.067C-7.08423 174.317 -2.26241 180.443 -0.894043 175.817C-0.112122 173.004 -3.43529 173.442 -6.10684 173.129C-6.88875 171.379 -6.43263 168.754 -5.32492 167.753C-4.60815 166.941 -2.06691 167.816 -1.285 167.003C-0.307602 165.878 -0.894043 163.315 1.51686 163.565C3.21103 165.503 -0.242447 166.941 1.12592 168.566C2.68974 171.504 8.03285 171.004 9.9225 168.941C12.4637 169.816 13.3108 173.754 16.6991 172.817C23.4758 170.941 13.2457 163.815 13.8972 160.877C16.4385 159.877 17.3507 163.003 19.501 163.565C22.9545 164.44 26.8641 162.815 29.1447 165.503C31.0343 165.003 30.5782 160.815 29.5356 159.752C28.0369 159.127 25.2351 160.44 23.9319 159.002C23.7364 156.877 24.1274 155.314 25.5609 154.751C28.6234 154.939 27.9066 158.127 30.3827 158.627C33.3801 159.19 34.6181 156.377 37.6154 155.564C38.2019 154.314 37.8109 152.188 38.3974 150.938C41.525 149.688 42.6328 144.562 47.6501 146.312C48.041 148.375 45.3695 149.375 45.6301 151.688C46.2166 156.314 53.2538 156.502 56.4466 159.002C59.3788 158.127 62.4413 157.314 61.6594 152.876C62.702 152.313 64.2007 152.251 64.8523 151.313C67.0025 152.001 65.1129 156.439 67.6541 156.689C70.1302 157.002 70.1302 154.939 71.6941 154.376C73.6488 155.876 75.343 156.064 78.0797 155.126C78.7313 156.377 78.2752 157.189 78.0797 158.564C82.2499 158.127 87.3976 160.065 90.5252 158.189C90.5252 155.501 89.222 153.564 90.5252 151.626C99.0612 150.938 107.467 153.251 111.376 145.875C115.351 146.125 115.872 142.999 118.609 141.999C121.672 145.25 126.819 143.187 129.817 141.249C129.621 137.123 133.14 136.311 132.228 132.81C131.706 130.685 127.471 130.372 127.015 127.809C126.493 125.184 128.579 124.996 129.426 121.621C131.771 122.934 133.791 125.559 135.811 128.184C137.375 130.185 140.503 133.498 141.024 135.498C142.132 139.624 140.307 144.625 141.024 148.563C141.741 152.501 144.608 158.627 146.628 163.565C147.67 166.003 149.495 170.316 151.45 171.629C152.362 172.254 153.665 172.129 154.643 172.817C158.682 175.255 161.549 179.943 164.286 181.631C165.98 182.693 168.978 183.069 171.128 183.944C176.992 186.257 182.596 189.882 188.786 192.383C190.285 193.008 192.24 192.883 193.608 193.508C194.846 194.133 196.28 196.321 198.039 196.196C200.189 196.071 200.124 194.32 202.079 193.508C209.703 191.632 206.249 200.946 209.312 201.947C213.221 203.259 211.657 198.634 215.763 199.259C216.935 199.634 217.196 201.009 217.001 202.697C219.411 203.759 220.193 206.01 222.604 206.947C224.233 207.573 226.384 206.885 228.208 207.698C232.704 209.76 234.072 216.887 239.025 219.262C240.328 219.887 241.826 219.512 242.999 220.012C247.235 221.95 248.994 227.013 255.445 226.138C257.009 227.763 259.354 228.576 261.831 229.201C263.916 234.202 260.267 242.391 265.023 244.579C265.284 249.267 264.567 255.268 266.652 260.331C267.369 262.144 269.324 263.582 269.454 265.332C269.585 267.145 267.565 269.27 267.434 271.458C267.369 272.958 268.346 274.459 268.216 275.709C267.825 280.397 262.938 282.46 259.811 284.96C258.051 288.961 256.227 292.774 257.009 299.213C257.334 301.088 260.397 300.275 260.592 302.276C259.224 306.839 248.277 305.526 252.187 312.652C253.816 313.59 255.966 311.152 257.4 313.027C258.898 315.528 255.901 315.965 255.771 318.028C255.64 319.154 255.705 320.091 255.901 320.904C255.705 321.154 255.575 321.404 255.38 321.716C255.249 321.654 255.119 321.654 254.989 321.654C254.467 321.404 254.272 320.841 253.62 320.654C253.816 319.966 254.011 319.279 254.207 318.528C254.728 316.341 251.535 317.341 251.014 318.653C250.753 319.279 250.428 319.966 250.167 320.654C249.906 320.529 249.58 320.466 249.255 320.529C248.538 320.654 247.951 321.279 247.235 321.341C246.453 321.466 245.541 322.342 245.28 323.154C244.237 321.966 243.716 320.216 242.543 319.154C238.373 318.153 233.225 319.091 230.228 316.778C229.381 316.903 229.381 317.841 228.599 318.091C228.013 317.653 227.426 317.341 226.579 317.216C225.015 317.591 225.667 320.091 224.298 320.716C220.324 319.841 217.131 320.341 213.808 321.591C213.286 321.029 214.068 320.404 213.808 319.404C212.439 319.841 211.266 320.466 209.507 320.466C209.377 321.279 209.116 322.029 208.856 322.654C210.159 322.404 212.374 322.779 212.765 324.217C212.635 325.029 211.462 324.904 210.485 324.842C209.377 325.592 208.986 327.092 207.487 327.467C206.901 325.592 203.187 326.655 203.643 323.779C204.034 323.217 205.011 323.154 205.272 322.467C205.011 321.904 205.011 321.154 205.011 320.279C200.906 317.966 202.796 324.842 199.342 324.654C198.691 324.217 199.147 323.529 198.886 323.154C193.022 322.154 186.571 323.279 180.902 323.779C180.576 324.342 180.316 324.967 179.99 325.53C181.814 324.842 183.443 323.654 185.919 324.654C186.05 325.217 185.919 325.967 186.571 325.967C187.613 325.905 187.288 324.467 188.395 324.404C189.112 325.155 190.741 325.092 191.328 325.967C191.719 325.53 191.849 324.842 192.696 324.904C193.804 325.78 195.042 326.592 196.345 327.28C195.302 327.78 194.977 328.843 194.26 329.655C191.523 329.843 190.285 329.03 188.33 330.343C185.984 331.843 184.355 337.094 182.205 334.281C182.075 333.531 182.987 333.718 182.857 332.968C181.358 331.781 178.947 332.531 176.927 332.968C176.145 332.031 175.494 331.03 174.191 330.593C173.865 331.093 173.8 331.843 172.822 331.656C171.975 331.593 171.519 331.155 171.649 330.155C172.171 329.78 173.343 330.03 174.191 329.905C175.298 328.405 173.995 326.405 172.627 325.967C169.89 326.467 167.544 327.78 168.522 331.218C168.131 331.656 167.87 332.218 167.153 332.281C166.306 332.218 166.502 331.155 165.589 331.218C165.003 332.218 164.221 333.093 163.569 334.031C161.68 333.906 159.399 333.843 158.096 334.719C157.966 335.656 158.813 335.594 158.748 336.469C158.292 336.719 158.357 337.532 157.379 337.344C155.099 336.344 153.795 333.968 151.45 333.218C149.56 332.593 147.801 333.781 145.064 333.656C144.543 334.906 142.067 336.406 140.959 335.594C141.154 335.094 142.523 335.156 141.871 334.531C140.633 333.906 139.721 333.281 139.591 332.156C135.095 332.468 132.162 333.218 127.275 333.218C126.298 332.218 127.015 330.593 126.819 328.655C122.975 328.092 123.757 332.093 122.454 333.656C121.216 335.219 118.609 335.781 116.329 336.906C115.156 337.532 114.243 338.719 112.94 339.094C112.093 339.344 111.051 339.094 110.204 339.282C108.314 339.782 107.076 341.532 104.73 342.095C102.515 342.657 99.8431 342.095 96.9761 342.345C94.6303 344.408 89.6782 343.97 88.3098 346.908C89.1569 348.158 92.9362 348.596 94.5652 348.658C95.9987 349.158 97.8232 350.284 99.0612 350.471C99.2567 350.471 99.387 350.534 99.5825 350.534C100.364 350.471 101.146 350.409 101.733 350.471C102.059 350.534 102.449 350.596 102.775 350.721C102.906 350.721 102.971 350.721 103.101 350.721C105.121 350.659 107.336 350.846 109.356 350.659C112.745 350.284 116.068 350.659 119.456 350.346C121.672 350.159 123.887 350.159 126.103 350.534H126.168C127.015 350.534 127.862 351.034 128.709 350.971C129.426 350.971 130.077 350.534 130.729 350.471C132.097 350.346 133.726 350.846 135.29 350.971C135.877 351.034 136.463 350.909 136.984 350.971C137.506 351.034 137.962 351.471 138.548 351.534C139.916 351.659 140.568 351.034 141.545 350.846C142.718 350.596 144.347 350.409 145.585 350.596C146.367 350.721 146.889 351.221 147.475 351.346C148.908 351.721 149.951 351.159 151.385 351.159C151.971 351.159 152.492 351.471 153.079 351.471C154.577 351.596 155.815 350.909 157.184 350.971C158.096 350.971 158.813 351.846 159.725 351.971C160.963 352.159 161.419 351.409 162.331 351.346C163.635 351.284 164.221 352.096 165.329 352.096C166.567 352.159 167.675 351.596 169.108 351.346C169.173 351.346 169.304 351.346 169.369 351.346C170.346 351.471 171.389 351.596 172.366 351.721C172.496 351.721 172.627 351.784 172.757 351.784C172.822 351.784 172.887 351.784 172.952 351.784C173.278 351.846 173.539 351.909 173.865 351.909C173.995 351.909 174.191 351.909 174.321 351.909C175.363 351.971 176.406 352.034 177.448 351.971C178.1 352.221 178.687 352.534 179.468 352.596C180.837 352.722 183.769 352.784 184.942 352.534C187.027 352.159 188.786 351.596 190.871 351.534C194.39 351.409 197.909 351.221 201.362 351.159C204.816 351.221 208.269 351.409 211.853 351.534C213.938 351.596 215.697 352.159 217.782 352.534C218.955 352.784 221.953 352.722 223.256 352.596C224.038 352.534 224.624 352.221 225.276 351.971C226.318 352.034 227.361 351.971 228.404 351.909C228.534 351.909 228.729 351.909 228.86 351.909C229.185 351.909 229.511 351.846 229.772 351.784C229.837 351.784 229.902 351.784 229.967 351.784C230.098 351.784 230.228 351.784 230.358 351.721C231.336 351.596 232.378 351.471 233.356 351.346C233.421 351.346 233.486 351.346 233.616 351.346C235.05 351.596 236.158 352.159 237.461 352.096C238.568 352.096 239.155 351.221 240.458 351.346C241.37 351.409 241.761 352.096 242.999 351.971C243.912 351.846 244.628 351.034 245.541 350.971C246.909 350.909 248.212 351.596 249.646 351.471C250.232 351.409 250.753 351.159 251.34 351.159C252.773 351.159 253.816 351.659 255.249 351.346C255.836 351.221 256.357 350.721 257.139 350.596C258.377 350.409 260.006 350.596 261.179 350.846C262.156 351.096 262.808 351.721 264.176 351.534C264.763 351.471 265.219 351.096 265.74 350.971C266.261 350.909 266.848 350.971 267.434 350.971C268.021 350.909 268.607 350.846 269.194 350.721C269.78 350.784 270.366 350.909 270.953 350.971C271.474 351.034 272.126 350.909 272.647 350.971C273.168 351.034 273.624 351.471 274.211 351.534C275.579 351.659 276.231 351.034 277.208 350.846C278.381 350.596 279.945 350.409 281.248 350.596C282.03 350.721 282.551 351.221 283.138 351.346C284.571 351.721 285.614 351.159 287.047 351.159C287.634 351.159 288.155 351.471 288.742 351.471C290.24 351.596 291.478 350.909 292.847 350.971C293.759 350.971 294.476 351.846 295.388 351.971C296.626 352.159 297.082 351.409 297.994 351.346C299.297 351.284 299.884 352.096 300.992 352.096C302.751 352.159 304.184 350.971 306.66 351.284C307.638 351.409 308.55 351.909 309.528 351.971C310.244 352.034 310.961 351.784 311.613 351.784C313.111 351.846 313.893 352.534 315.066 352.659C316.369 352.784 319.367 352.847 320.54 352.596C322.625 352.221 324.384 351.659 326.469 351.596C327.512 351.534 328.489 351.534 329.532 351.471C330.248 351.534 330.965 351.659 331.617 351.721C331.747 351.721 331.877 351.784 332.008 351.784C332.203 351.784 332.594 351.846 332.79 351.846C334.223 351.971 335.591 352.034 337.025 351.971C337.22 351.971 337.481 351.909 337.677 351.846C337.742 351.846 337.937 351.784 338.068 351.721C338.198 351.659 338.328 351.596 338.458 351.471C338.654 351.346 338.915 351.221 339.11 351.096C339.892 351.096 340.674 351.159 341.456 351.159C344.127 351.284 346.603 351.284 348.819 351.096C351.034 351.284 353.51 351.346 356.182 351.159C356.964 351.096 357.746 351.096 358.528 351.096C358.723 351.221 358.984 351.284 359.179 351.471C359.31 351.534 359.44 351.596 359.57 351.721C359.31 351.721 359.44 351.784 359.57 351.784C359.701 351.846 360.026 351.846 360.222 351.909C361.655 351.971 363.024 351.909 364.457 351.784C364.653 351.784 365.044 351.721 365.239 351.721C365.37 351.721 365.5 351.721 365.63 351.659C366.347 351.596 367.064 351.471 367.715 351.409C368.758 351.471 369.735 351.471 370.778 351.534C372.863 351.596 374.622 352.159 376.707 352.534C377.88 352.784 380.878 352.722 382.181 352.596C383.419 352.471 384.201 351.721 385.634 351.721C386.351 351.721 387.068 351.971 387.785 351.909C388.762 351.846 389.739 351.346 390.651 351.221C393.128 350.909 394.626 352.096 396.32 352.034C397.428 352.034 398.015 351.159 399.318 351.284C400.23 351.346 400.686 352.034 401.924 351.909C402.836 351.784 403.553 350.971 404.465 350.909C405.834 350.846 407.137 351.534 408.57 351.409C409.157 351.346 409.678 351.096 410.265 351.096C411.698 351.096 412.741 351.596 414.174 351.284C414.761 351.159 415.282 350.659 416.064 350.534C417.302 350.346 418.931 350.534 420.104 350.784C421.081 351.034 421.733 351.659 423.101 351.471C423.688 351.409 424.144 351.034 424.665 350.909C425.186 350.846 425.773 350.909 426.359 350.909C427.988 350.784 429.552 350.284 430.92 350.409C431.572 350.471 432.224 350.909 432.94 350.909C433.787 350.971 434.634 350.471 435.482 350.471H435.547C437.697 350.096 439.978 350.096 442.193 350.284C445.581 350.534 448.904 350.221 452.293 350.596C454.313 350.784 456.463 350.596 458.483 350.659C458.613 350.659 458.678 350.659 458.809 350.659C459.135 350.534 459.46 350.471 459.851 350.409C460.438 350.284 461.22 350.346 462.002 350.471C462.197 350.471 462.327 350.409 462.523 350.409C464.087 350.159 466.432 348.408 467.996 348.346C468.127 348.346 468.322 348.283 468.452 348.283C468.452 348.158 468.583 347.908 468.648 347.658C469.43 347.408 470.016 347.033 470.081 346.533C470.472 344.47 467.931 344.845 467.149 343.47C464.347 342.845 462.197 341.657 459.395 341.032C456.658 339.907 453.205 338.344 449.817 337.344C447.536 336.656 443.431 336.156 440.955 336.656C440.564 337.532 439.847 338.094 438.674 338.157C438.218 337.594 438.74 336.094 437.567 336.219C437.306 336.219 437.241 336.469 436.915 336.406C437.371 337.782 435.742 339.907 434.374 338.844C433.853 337.344 435.872 337.281 435.286 336.406C433.005 336.094 431.507 334.906 429.617 334.219C430.269 335.469 431.116 338.782 428.9 339.032C427.793 337.469 426.229 336.406 425.056 334.906C425.186 333.406 425.447 332.343 424.6 331.406C423.492 331.155 422.384 330.905 421.211 330.718C419.452 331.906 418.801 334.093 415.282 333.593C414.109 330.718 410.59 330.03 410.069 326.592C407.984 326.092 408.049 327.717 406.681 327.905C406.681 326.53 408.049 325.092 406.876 323.967C405.964 323.904 405.703 324.404 405.052 324.592C405.052 326.155 404.726 327.467 403.423 327.842C403.097 326.842 403.162 325.467 401.598 325.655C400.882 325.967 401.338 327.467 399.969 327.155C399.578 326.28 399.969 324.592 399.057 324.092C398.275 324.029 397.168 324.279 396.777 323.904C396.842 322.404 396.842 321.091 395.408 321.029C394.04 323.342 393.844 326.905 391.108 327.155C389.739 327.28 387.524 325.717 385.439 324.967C381.92 323.779 377.88 323.404 374.753 322.091C374.622 321.091 375.274 320.841 375.209 319.904C374.557 319.279 373.775 319.154 372.733 319.466C370.908 323.842 364.131 322.592 359.049 321.841C359.049 323.467 360.613 323.529 360.222 325.53C354.814 324.467 351.556 327.342 349.08 330.343C347.972 330.53 347.385 330.218 347.255 329.468C347.385 326.28 351.425 325.28 350.643 321.404C348.493 320.904 345.887 321.716 345.17 319.654C344.779 318.591 346.017 317.153 344.974 315.965C342.824 315.653 342.824 317.403 341.586 317.903C340.739 316.653 338.328 317.466 337.025 317.716C335.07 316.591 337.09 313.278 334.94 312.902C332.79 312.527 332.985 316.653 329.662 315.965C328.359 320.591 320.605 318.153 315.327 318.591C314.154 317.716 312.655 317.028 310.961 317.716C310.57 317.341 310.766 316.403 310.7 315.715C310.114 315.84 309.527 315.965 309.006 316.215C306.986 313.152 305.097 310.09 303.402 306.526C301.383 302.213 301.513 301.713 303.012 295.775C303.924 292.024 304.445 286.211 304.641 281.897C304.836 278.334 303.598 271.958 304.641 268.02C305.097 266.27 308.42 263.332 310.635 261.081C312.981 258.706 315.066 256.393 316.63 254.518C322.56 247.454 323.798 240.703 328.228 235.265C333.246 220.137 334.419 200.134 339.045 183.694C340.283 179.318 342.107 175.505 343.476 171.379C344.258 169.066 343.867 166.753 344.649 164.815C345.365 163.128 347.972 160.252 349.471 157.502C350.578 155.501 350.709 153.314 351.881 152.126C354.423 149.563 358.658 149.313 362.698 147.875C364.197 147.375 365.37 146.187 367.129 145.562C377.163 141.999 390.456 142.562 400.035 138.999C410.59 135.123 413.132 127.059 422.124 122.058C422.841 124.059 419.713 126.872 420.886 129.372C421.016 131.185 424.209 130.06 425.317 130.935C426.946 133.498 427.532 136.998 430.529 138.249C433.787 137.561 436.329 138.499 438.544 139.811C439.13 140.749 438.674 142.812 439.326 143.624C440.89 144.75 442.128 142.374 443.757 143.624C444.213 145.437 441.346 144.187 441.346 145.562C442.193 147.875 444.799 146.125 445.777 145.187C448.448 145.312 450.338 146.187 452.619 146.75C452.749 142.624 450.208 141.124 449.426 137.874C451.185 136.248 451.511 140.374 453.466 138.624C455.095 136.561 451.381 136.936 451.837 134.748C454.182 126.872 461.871 136.623 466.302 132.06C466.563 129.81 465.52 128.622 466.693 127.434C473.339 128.622 470.342 139.061 473.926 143.187C475.555 141.249 476.923 138.436 480.377 139.311C481.224 136.748 477.835 135.248 479.986 133.935C481.81 133.685 481.028 136.061 481.159 137.373C489.89 138.374 484.026 131.185 484.742 127.372C483.309 125.621 481.68 128.184 479.921 126.997C478.813 125.434 478.813 121.621 479.921 120.058C479.986 118.12 477.901 116.182 480.702 115.807C483.179 117.058 479.79 121.058 483.113 122.371C486.697 118.12 481.224 108.244 489.564 107.744C491.714 105.868 490.998 101.18 495.168 101.18C495.82 103.118 492.301 105.931 495.168 108.119C497.905 105.868 502.205 106.681 504.812 108.494C505.919 106.368 504.225 103.118 507.223 101.555C509.699 102.18 511.328 103.493 512.826 104.993C512.24 107.869 508.004 108.494 509.633 112.307C511.328 113.87 512.5 112.182 514.064 112.682C514.52 112.807 519.407 115.87 520.059 116.557C522.405 118.87 520.906 120.308 523.252 120.808C524.946 121.121 533.221 117.308 534.459 115.807C536.284 113.62 535.958 110.181 537.652 108.119C535.176 105.493 533.612 101.993 529.638 100.805C526.64 101.493 526.51 105.118 523.643 105.056C520.711 104.993 519.082 100.492 518.43 98.1169C521.688 97.6169 525.728 99.4922 528.856 100.43C530.55 99.7422 529.703 96.6167 531.658 96.1791C535.567 97.8044 535.893 102.868 539.281 105.056C539.151 105.931 538.825 106.618 538.499 107.368C545.471 114.932 548.86 97.7419 552.965 94.3038C553.225 92.366 552.313 91.6159 552.574 89.6781C554.724 88.2403 556.223 89.6781 558.178 90.4282C561.11 89.6781 563.521 88.9904 567.039 89.6781C569.711 88.1778 567.43 84.8023 566.648 83.1145C569.841 84.1147 573.425 84.8648 575.445 86.9276C581.831 82.9895 573.946 75.6133 568.994 77.6761C567.756 76.8635 568.082 74.363 568.994 73.4254C575.64 72.3627 578.507 78.1136 581.44 81.8643C585.48 77.5511 578.703 72.5502 576.618 69.1747C577.791 62.7361 577.204 55.5474 581.831 51.4843C585.61 51.3592 588.737 50.6716 592.256 50.3591C594.863 46.5459 591.409 43.0454 588.607 41.9202C589.976 38.7321 588.412 32.7312 590.627 30.3558C593.95 29.6682 593.885 33.7313 597.078 34.2314C597.404 34.2939 604.05 33.5438 605.875 33.0437C609.133 32.1686 609.523 28.793 611.869 28.0429C613.954 28.2304 613.498 31.731 615.844 32.2936C617.734 32.7312 619.363 30.4183 621.839 30.3558C623.989 30.3558 627.442 32.6686 629.462 33.7938C631.222 34.7315 632.264 36.4193 633.893 36.4818C639.888 36.7943 639.236 30.2307 640.279 25.3549C642.69 25.0424 644.384 24.1672 646.274 23.4171C648.554 23.1046 647.512 26.1051 649.858 25.73C651.487 25.2924 651.552 24.2298 651.03 22.667C652.855 22.3544 654.223 23.9172 655.461 23.0421C657.481 22.3544 656.243 20.6667 656.699 19.1664C657.221 17.4786 658.719 16.0409 658.654 14.1656C658.654 12.6653 657.025 11.4151 657.025 9.91487C657.09 5.66417 662.173 4.03891 663.867 0.2883C668.363 -0.0867615 671.36 -1.83707 676.312 -0.836899C678.267 -1.33698 675.14 -2.7122 676.378 -4.08743ZM55.1434 -54.9083C55.9254 -56.2836 58.6621 -57.5338 59.9653 -57.2212C61.1382 -53.6581 55.6647 -51.1577 55.1434 -54.9083ZM90.0691 -75.6618C86.2899 -77.2245 81.3377 -77.7871 78.4055 -80.2875C79.3177 -83.9131 83.3577 -87.3512 86.8111 -86.0385C87.3976 -82.2879 92.0891 -80.6001 90.0691 -75.6618ZM107.727 -71.4736C107.141 -72.0987 107.141 -74.3491 107.727 -74.9742C108.64 -75.0992 109.291 -74.9116 109.747 -74.5991C109.747 -72.8488 109.226 -71.6611 107.727 -71.4736ZM108.509 -90.2892C105.642 -90.7268 104.469 -87.5387 100.886 -89.1015C99.9734 -92.4145 101.798 -96.4152 102.515 -99.4782C105.317 -99.2282 108.249 -99.0406 110.529 -98.353C111.898 -95.6651 114.113 -93.8523 116.915 -92.6021C116.394 -89.414 117.501 -87.7263 118.935 -86.4761C113.266 -83.413 111.572 -89.7891 108.509 -90.2892ZM118.153 -71.8486C117.11 -72.9113 118.479 -74.0365 118.544 -75.2867C119.782 -75.7868 122.258 -75.9743 122.975 -74.9116C122.649 -72.5988 120.759 -71.9111 118.153 -71.8486ZM123.757 -83.7256C121.867 -83.8506 121.476 -85.4134 120.108 -86.0385C121.216 -87.9763 127.015 -88.2263 128.513 -86.4135C127.406 -85.1008 125.125 -84.9133 123.757 -83.7256ZM132.553 -128.796C133.531 -128.796 133.726 -129.483 134.964 -129.171C135.616 -127.858 132.293 -127.358 132.553 -128.796ZM-75.5672 -25.2784C-80.9755 -29.2791 -70.2893 -29.5916 -75.5672 -25.2784V-25.2784ZM-83.5819 -17.2146C-82.4742 -17.1521 -81.8877 -16.527 -81.9529 -15.2768C-83.1258 -15.3393 -83.7122 -15.9644 -83.5819 -17.2146ZM-68.3345 37.0444C-69.1164 36.2317 -68.6603 34.4814 -68.3345 33.6063C-66.8358 33.4188 -64.9462 32.2311 -63.5127 33.2312C-64.1643 35.4816 -65.8584 36.6068 -68.3345 37.0444ZM-57.518 41.2951C-58.1696 41.9202 -59.3424 41.045 -59.9289 40.5449C-59.8637 38.7321 -57.127 39.4823 -57.518 41.2951ZM-31.845 -2.21211C-33.6043 -1.21196 -34.1907 -2.83723 -36.2758 -2.58719C-38.7519 -0.649368 -41.9447 0.663345 -43.8996 3.16376C-45.1376 4.78903 -45.0724 8.16458 -48.3304 7.78952C-50.2852 6.35179 -49.0472 3.97641 -51.5233 3.53883C-53.4781 3.22629 -55.3677 5.97673 -55.5632 6.9769C-56.6057 13.6655 -45.9195 19.1664 -42.7267 20.8542C-40.5764 20.3541 -38.1655 17.2911 -35.8849 19.2914C-36.1455 26.9802 -50.3504 29.3556 -54.7161 23.9172C-55.9541 24.3548 -56.8664 25.2299 -58.2999 25.4799C-59.0818 23.9172 -58.6908 21.2292 -60.7108 20.8542C-64.3597 21.8544 -64.6855 25.98 -66.3145 28.918C-67.6177 29.7307 -69.768 29.7307 -70.7454 30.8558C-71.3319 32.1686 -71.397 34.0439 -71.9183 35.4816C-79.151 36.4818 -81.8226 26.6677 -88.7947 28.543C-91.0753 28.2929 -91.3359 26.1051 -93.2256 25.4799C-96.2881 24.4798 -98.308 26.6676 -100.458 26.6051C-105.345 26.4801 -106.453 21.7293 -107.3 16.6035C-106.323 14.9782 -104.042 14.6031 -101.305 14.6657C-99.7415 14.8532 -99.8067 16.541 -98.5035 16.9785C-96.0926 16.9785 -96.4184 14.3531 -93.6817 14.6657C-92.7694 16.1034 -92.3133 17.9162 -91.6617 19.6665C-88.6644 22.2294 -83.3864 20.2291 -82.8651 16.9785C-81.3013 16.916 -80.78 17.7912 -79.6723 18.1037C-76.7401 15.4783 -72.9609 18.2288 -68.4648 16.9785C-67.1616 15.6033 -69.7029 15.6033 -69.2467 13.9155C-65.7281 11.4776 -57.9089 10.8525 -57.1922 6.22676C-56.6057 2.41364 -60.7108 0.913391 -64.034 -1.08694C-63.3824 -3.27481 -61.0366 -5.33763 -58.8212 -5.33763C-55.6283 -5.27513 -54.26 -0.774384 -50.0246 -1.46201C-46.1801 -2.0871 -45.5285 -5.71271 -42.4009 -8.40065C-40.7719 -8.02559 -39.9248 -6.96291 -38.8171 -6.08777C-35.7546 -5.40015 -30.9327 -6.58784 -31.845 -2.21211ZM-169.006 87.4277C-167.182 86.8651 -162.23 85.1773 -161.774 87.8028C-163.338 89.303 -167.052 87.9278 -169.006 87.4277ZM-153.368 110.932C-160.405 110.494 -150.631 103.68 -153.368 110.932V110.932ZM-95.2455 123.996C-96.0926 123.184 -95.3107 122.308 -94.8546 121.683C-94.5288 121.871 -94.203 122.058 -93.6165 122.058C-93.4862 123.371 -93.7468 124.246 -95.2455 123.996ZM-89.1857 83.9896C-90.2934 82.8644 -90.3585 79.6139 -87.5567 80.114C-87.6218 81.9268 -87.4263 83.9271 -89.1857 83.9896ZM-71.1364 79.3638C-71.2015 81.1141 -71.9183 82.2393 -73.1563 82.8019C-76.7401 80.0515 -79.542 83.8021 -82.8 83.177C-83.3864 80.489 -80.5194 80.9891 -80.3891 78.9263C-80.1284 77.1135 -81.1058 76.5509 -82.0181 75.8633C-84.2987 75.8633 -84.6245 78.8638 -86.8399 77.8011C-88.0779 73.3629 -82.9303 71.8626 -82.0181 68.1745C-80.78 67.9245 -80.5194 68.5496 -79.6071 68.5496C-77.4569 64.799 -75.046 67.3619 -73.6124 70.1123C-70.6151 70.4249 -68.9209 68.237 -66.3797 69.3622C-64.7507 74.363 -69.3119 76.4884 -71.1364 79.3638ZM-61.1669 68.237C-59.0818 69.5497 -56.8664 70.7999 -55.1722 72.4877C-57.0618 76.1133 -63.252 71.9251 -61.1669 68.237ZM-56.3451 115.557C-56.8012 112.682 -59.2121 111.619 -59.147 108.244C-59.3424 107.368 -58.365 107.681 -58.365 107.056C-56.0193 108.931 -53.4129 110.494 -53.5432 114.745C-54.3903 115.12 -54.9116 115.745 -56.3451 115.557ZM-48.7214 74.7381C-48.0698 74.7381 -47.353 74.7381 -46.7014 74.7381C-46.6363 76.2383 -49.1775 76.926 -48.7214 74.7381ZM-41.4886 75.5507C-43.0525 75.8008 -43.8344 75.2382 -44.6815 74.8006C-44.1602 73.8004 -43.8344 72.5502 -41.8796 72.8628C-41.7493 73.7379 -41.228 74.3005 -41.4886 75.5507ZM-20.6375 90.5532C-20.051 89.178 -19.2691 87.9903 -17.4447 87.8653C-17.2492 89.9281 -18.422 90.7407 -20.6375 90.5532ZM-19.4646 81.6767C-19.6601 80.239 -18.6827 79.864 -18.2266 78.9888C-15.2944 79.3639 -17.3143 83.052 -19.4646 81.6767ZM-16.5976 154.751C-15.7505 153.939 -14.3821 154.564 -13.7957 155.126C-14.317 156.502 -16.5324 156.564 -16.5976 154.751ZM-12.2319 79.7389C-12.5576 79.3639 -12.688 78.8638 -12.6228 78.1762C-11.9712 78.1762 -11.3196 78.1762 -10.6029 78.1762C-10.668 79.1763 -11.1893 79.7389 -12.2319 79.7389ZM450.273 339.782C450.468 341.032 450.077 341.72 448.709 341.532C447.992 340.157 449.035 338.594 450.273 339.782ZM444.995 343.032C445.321 343.157 445.581 343.345 445.907 343.47C445.907 344.595 445.712 346.346 445.907 347.408C445.581 347.408 445.581 347.721 445.386 347.846C445.255 347.846 445.125 347.846 444.995 347.846C444.995 347.846 444.995 347.846 444.93 347.846C443.431 347.346 444.343 343.845 444.995 343.032ZM431.376 344.595C431.376 345.533 430.855 345.97 429.813 345.908C428.64 344.595 430.79 342.97 431.376 344.595ZM336.83 324.904C338.915 324.717 340.413 324.217 340.218 321.404C340.609 320.154 342.889 321.091 343.867 321.154C343.867 323.217 341.195 322.654 341.13 324.654C341.391 325.53 342.498 324.842 343.215 324.842C343.736 325.342 344.062 326.03 344.127 327.03C343.541 327.405 342.824 327.717 342.107 327.905C341.26 327.217 340.804 326.092 339.827 325.467C338.915 325.405 339.11 326.405 338.198 326.342C337.416 326.28 336.699 326.03 336.83 324.904ZM444.148 -116.856C443.236 -114.793 442.388 -112.668 440.173 -111.855C435.156 -113.981 442.714 -122.044 444.148 -116.856ZM378.011 -37.593C381.203 -37.3429 382.181 -34.4675 385.243 -34.1549C388.045 -33.8424 390.391 -36.0927 394.04 -35.7177C394.757 -37.593 398.34 -39.2807 398.862 -36.0927C394.496 -32.5921 388.892 -29.5291 382.441 -30.2793C380.617 -31.717 380.096 -34.4049 376.447 -34.1549C376.968 -35.2176 376.968 -36.9679 378.011 -37.593ZM398.471 35.4816C398.015 35.4191 397.754 35.6066 397.689 35.8567C395.799 35.9817 395.343 34.794 394.496 33.9189C394.496 29.6056 400.882 31.5435 398.471 35.4816ZM392.411 19.729C390.195 15.9784 396.711 16.1034 394.431 19.729C393.779 19.729 393.128 19.729 392.411 19.729ZM376.382 1.28845C373.319 2.78871 367.52 1.35097 368.367 -3.33731C371.364 -2.77472 374.948 -2.7122 376.772 -1.02443C377.098 0.163269 376.382 0.3508 376.382 1.28845ZM368.758 -131.108C369.214 -127.92 366.151 -125.107 363.545 -127.233C364.653 -129.108 366.021 -133.171 368.758 -131.108ZM363.545 -36.8428C365.044 -38.2181 363.936 -42.0937 365.956 -42.9689C369.735 -40.5935 370.647 -35.4676 375.991 -34.53C373.971 -27.2788 368.693 -34.4049 365.956 -36.4678C363.675 -33.9049 363.154 -29.6542 360.743 -27.2162C354.032 -28.2789 352.663 -21.2153 346.734 -24.9034C346.799 -27.6538 346.799 -30.3418 345.496 -31.842C343.932 -31.967 341.651 -31.467 340.674 -32.2171C340.609 -33.6548 340.674 -35.03 341.456 -35.6552C343.02 -34.655 349.275 -35.0301 351.49 -33.3423C351.295 -30.9044 348.232 -29.4041 349.862 -26.4036C353.185 -25.591 352.924 -28.3414 353.445 -30.2793C357.159 -30.4668 359.44 -31.967 359.44 -35.6552C360.939 -36.0302 362.046 -36.5928 363.545 -36.8428ZM363.154 -5.27513C362.437 -3.64987 361.264 -2.46216 359.57 -1.77455C359.049 -2.39966 358.528 -3.08727 358.788 -4.46249C360.026 -4.96257 361.395 -5.27513 363.154 -5.27513ZM338.328 -25.2784C337.416 -27.0287 336.569 -31.717 339.957 -31.467C340.869 -29.5291 341.326 -27.2788 340.348 -25.2784C339.631 -25.2784 338.98 -25.2784 338.328 -25.2784ZM338.719 2.78871C335.201 2.91373 335.852 -2.96225 338.719 -2.96225C340.478 -1.96208 341 1.91356 338.719 2.78871ZM361.59 -44.5316C358.397 -44.1566 358.202 -46.657 357.55 -48.7823C360.483 -49.0949 362.893 -47.0945 361.59 -44.5316ZM353.51 -135.297C355.139 -134.922 355.661 -133.484 357.094 -132.984C355.856 -132.171 352.989 -133.109 353.51 -135.297ZM352.338 -117.981C348.819 -116.544 351.881 -121.857 352.338 -117.981V-117.981ZM344.714 -60.2842C346.082 -60.5343 346.147 -58.909 345.496 -58.3464C344.714 -58.659 343.867 -59.5341 344.714 -60.2842ZM329.857 -53.7206C331.877 -55.721 330.9 -60.8468 335.461 -60.2842C337.677 -58.1589 334.94 -55.846 334.679 -53.7206C335.07 -51.9078 338.198 -52.783 340.283 -52.5955C343.932 -56.2836 350.904 -56.7836 353.119 -61.847C354.748 -62.222 354.879 -61.2219 355.53 -60.7218C353.576 -58.3464 351.36 -55.2834 354.357 -52.2829C352.924 -50.1575 349.927 -49.595 348.754 -47.2821C342.694 -45.8443 337.155 -50.0325 331.943 -49.5949C330.314 -49.4699 328.75 -47.6571 327.121 -47.6571C325.427 -47.6571 324.775 -48.9698 323.081 -49.5949C321.256 -50.2826 317.412 -49.5949 317.477 -52.2829C322.56 -52.7205 326.665 -50.5326 329.857 -53.7206ZM314.61 -54.5333C309.397 -62.222 322.169 -57.1587 314.61 -54.5333V-54.5333ZM315.066 -112.23C312.069 -112.043 311.222 -113.918 310.635 -116.106C312.981 -120.169 316.239 -115.481 315.066 -112.23ZM313.046 -36.8428C313.372 -28.779 304.38 -32.5921 303.793 -37.2179C305.357 -40.2184 310.57 -37.593 313.046 -36.8428ZM286.982 -2.58719C287.047 -1.14944 287.308 0.53833 285.418 0.100754C284.571 -0.836899 285.158 -2.89973 286.982 -2.58719ZM274.928 -98.7906C275.579 -95.7901 282.16 -96.5402 280.531 -92.6021C278.577 -92.4145 278.642 -94.1648 277.339 -94.5399C273.624 -95.1025 271.083 -91.977 269.324 -94.9149C270.366 -96.9778 272.582 -97.9154 274.928 -98.7906ZM272.908 7.78952C267.76 9.85237 263.46 5.97673 263.264 0.850891C268.412 -0.0867615 273.038 2.53867 272.908 7.78952ZM244.433 -97.978C246.974 -100.853 249.58 -94.9775 252.838 -94.9149C257.204 -95.29 263.59 -99.9783 266.066 -95.29C264.111 -92.6021 266.978 -90.7893 266.457 -88.7264C262.482 -89.3515 263.199 -92.352 259.615 -92.1645C256.944 -92.0395 254.663 -87.8513 249.971 -89.4765C248.994 -90.4142 250.297 -91.1643 249.971 -92.5396C248.473 -92.227 246.388 -91.0393 244.759 -92.1645C244.368 -93.6022 244.042 -97.1028 244.433 -97.978ZM259.289 20.9167C259.42 19.2289 261.44 18.4163 262.482 19.7915C262.743 21.2918 260.332 21.6668 259.289 20.9167ZM252.447 0.475815C252.708 0.475815 252.969 0.475815 253.229 0.475815C254.858 2.53865 257.856 3.22627 258.833 5.85172C256.031 5.03908 251.209 4.10141 252.447 0.475815ZM252.057 23.9797C250.753 22.542 252.578 19.6665 254.076 20.9167C254.207 22.667 254.076 24.1672 252.057 23.9797ZM254.076 -39.9059C256.618 -41.2811 259.354 -37.968 258.898 -36.4678C258.051 -38.2806 254.858 -37.968 254.076 -39.9059ZM236.809 -33.3423C235.115 -32.7797 235.832 -29.9667 234.007 -29.4666C229.772 -29.4041 231.336 -34.8425 228.404 -36.0302C223.907 -34.9675 227.165 -26.4661 221.171 -26.7787C218.955 -30.1542 221.106 -35.5926 219.542 -39.0932C223.777 -41.5311 232.639 -36.7803 236.418 -41.4061C240.263 -38.7807 244.368 -36.5928 250.428 -37.1554C249.971 -31.592 241.761 -32.5921 236.809 -33.3423ZM233.225 -5.65019C231.14 -10.0259 238.177 -13.339 238.829 -9.08826C239.155 -7.27545 235.701 -4.71254 233.225 -5.65019ZM228.013 132.498C226.579 128.747 224.624 125.496 219.607 125.184C215.828 121.996 214.394 116.62 206.379 117.495C205.467 116.558 205.141 113.745 206.379 112.869C209.898 115.87 215.828 116.683 221.627 117.495C222.865 119.996 224.559 122.121 228.013 122.496C229.642 125.184 234.724 131.497 228.013 132.498ZM248.864 -49.1574C248.668 -46.782 248.147 -44.7191 245.671 -44.5316C243.455 -46.782 246.062 -50.5951 248.864 -49.1574ZM243.26 -56.0335C245.345 -56.221 246.453 -55.5334 246.453 -53.7206C245.997 -53.2831 245.019 -53.2831 244.042 -53.3456C243.521 -54.0332 242.999 -54.6583 243.26 -56.0335ZM242.022 -98.353C242.087 -97.2278 240.588 -96.9778 240.002 -97.6029C240.067 -98.9781 241.435 -99.5407 242.022 -98.353ZM232.443 -126.858C232.509 -123.295 234.985 -122.107 235.636 -119.169C234.138 -116.794 230.293 -118.794 228.404 -119.544C228.273 -123.357 228.273 -127.108 232.443 -126.858ZM217.978 -100.666C220.78 -100.291 219.672 -96.1026 221.171 -94.4774C223.517 -95.04 225.276 -96.9153 228.404 -95.6026C230.358 -97.6654 230.554 -104.792 235.636 -101.354C235.571 -99.6657 234.659 -98.353 235.245 -97.1028C235.962 -95.6026 239.937 -96.1026 238.438 -93.6647C236.483 -92.4145 236.158 -95.4775 234.007 -95.2275C229.642 -93.9148 231.922 -89.414 235.245 -89.4765C237.591 -89.5391 239.741 -94.1648 242.022 -91.0393C242.087 -89.6016 242.478 -89.9141 242.022 -88.7264C241.175 -88.0388 239.09 -88.4764 237.591 -88.3514C235.832 -87.0386 234.659 -82.7254 236.809 -81.0377C235.962 -76.8495 229.12 -78.8498 226.775 -80.6626C227.817 -87.1637 219.151 -84.4132 218.76 -89.4765C215.958 -89.2265 213.873 -89.6641 213.156 -91.4144C214.133 -95.165 214.655 -99.2907 217.978 -100.666ZM208.399 -95.6651C208.79 -94.3524 208.334 -91.6644 206.379 -91.4144C203.969 -92.352 205.598 -97.5404 208.399 -95.6651ZM191.523 -34.1549C193.282 -34.1549 194.977 -34.1549 196.736 -34.1549C196.28 -32.2796 193.804 -32.3421 191.914 -31.842C191.197 -32.6547 191.002 -32.9672 191.523 -34.1549ZM185.072 -69.1607C184.355 -67.4729 178.491 -67.3479 178.23 -69.5358C180.446 -69.5358 183.704 -70.6609 185.072 -69.1607ZM176.667 -69.5358C171.91 -70.5984 169.955 -67.0978 166.241 -68.3481C166.827 -71.5361 176.471 -78.8498 176.667 -69.5358ZM163.048 -41.031C164.807 -41.7812 165.394 -43.594 167.479 -43.719C170.411 -43.9065 171.91 -39.7183 175.885 -41.031C176.406 -39.8433 176.601 -37.4679 175.494 -36.7803C172.301 -36.2177 171.063 -38.3431 168.261 -38.3431C164.417 -38.2806 160.702 -33.4673 157.835 -38.3431C158.161 -40.8435 161.159 -40.2184 163.048 -41.031ZM156.206 -72.5988C155.881 -73.9115 156.663 -74.224 156.988 -74.9116C158.422 -74.8491 158.617 -73.6614 158.552 -72.2237C157.64 -72.1612 156.728 -72.1612 156.206 -72.5988ZM166.241 -117.981C167.088 -116.981 168 -114.481 167.023 -112.98C164.026 -113.418 161.419 -114.293 159.79 -116.043C160.637 -117.981 163.309 -118.169 166.241 -117.981ZM163.439 -92.6021C163.569 -90.8518 162.136 -90.5392 161.028 -89.9141C159.008 -89.6641 159.139 -91.4769 157.053 -91.1018C155.49 -89.2265 152.297 -87.3512 148.648 -88.7889C148.713 -89.2265 148.583 -89.4765 148.257 -89.5391C148.713 -94.4774 160.702 -94.6649 163.439 -92.6021ZM144.999 -71.8486C144.673 -77.6621 152.492 -75.2867 149.039 -70.7234C146.954 -70.4109 145.976 -71.0985 144.999 -71.8486ZM144.999 -33.3423C146.823 -31.842 148.518 -30.3418 149.43 -27.9664C147.931 -26.4661 144.999 -28.3414 143.435 -29.0916C143.305 -31.0919 144.152 -32.2171 144.999 -33.3423ZM122.91 -3.33731C124.93 -3.8999 127.145 -1.58702 129.751 -1.39949C131.185 -1.39949 131.706 -2.33714 132.944 -2.58719C136.724 -1.39949 139.265 -3.77487 143.761 -2.21211C144.673 -0.524338 146.041 0.725861 147.345 2.03857C147.149 3.16376 146.498 3.78888 145.325 3.97641C143.109 1.72603 140.503 -0.0867615 136.528 -0.649353C133.661 0.663361 133.922 4.66402 130.924 5.10159C126.884 5.7267 124.995 0.163269 122.519 -2.58719C122.454 -3.02477 122.649 -3.2748 122.91 -3.33731ZM146.628 18.9789C146.758 20.4791 145.846 21.0417 144.217 20.9167C143.565 18.8539 145.325 17.9162 146.628 18.9789ZM105.317 4.35146C105.838 4.35146 106.359 4.35146 106.946 4.35146C107.336 5.66418 104.665 6.10175 105.317 4.35146ZM93.262 -32.5921C93.0013 -30.6543 92.5452 -28.904 90.0691 -29.1541C90.0691 -31.2794 91.3072 -32.2796 93.262 -32.5921ZM44.3269 -31.0294C45.6301 -31.6545 46.9985 -31.3419 47.9107 -30.6543C47.8455 -29.2791 46.6075 -29.0916 45.1088 -29.0916C44.9785 -29.8417 44.0011 -29.8417 44.3269 -31.0294ZM29.8614 -3.71237C30.1872 -2.0246 28.037 -1.39949 27.0596 -2.14961C26.9944 -3.71237 28.6234 -4.77505 29.8614 -3.71237ZM3.40651 -7.96307C9.59669 -5.77521 15.5914 -7.65051 21.8468 -9.52583C23.6061 -8.08809 23.9319 -3.77489 23.0848 -1.08694C19.5662 -1.21196 14.223 -1.27448 12.6592 1.601C7.05545 1.35097 5.23099 -2.52467 1.06075 -4.14995C1.97299 -5.27513 2.49428 -6.83788 3.40651 -7.96307ZM-28.2612 -1.02443C-28.196 -2.0246 -26.8928 -1.77455 -25.8503 -1.77455C-26.0457 -0.899399 -27.4141 -0.211792 -28.2612 -1.02443ZM-24.6774 -2.96225C-24.4167 -8.65068 -17.5098 -5.96274 -13.0138 -7.21295C-10.4725 -7.90056 -10.5377 -10.9636 -7.80098 -10.276C-6.36746 -9.02576 -6.69327 -6.21278 -5.39008 -4.90007C-3.76108 -4.65002 -2.65337 -3.8999 -0.568253 -4.14995C-0.112122 -2.77472 -1.74112 -0.461838 -2.97916 0.475815C-8.38742 -2.27464 -15.946 -2.89973 -24.6774 -2.96225ZM18.6539 32.0435C16.9598 29.9807 20.6739 27.6053 21.4558 30.1057C20.9345 31.1684 20.6087 32.3561 18.6539 32.0435ZM19.501 25.4799C18.1327 26.3551 16.0475 26.3551 14.6792 25.4799C14.614 24.2923 15.7217 24.1672 15.4611 22.792C13.5715 20.0416 9.85733 22.542 11.0302 26.2301C12.4637 26.9802 13.8972 27.2928 13.0502 29.2931C11.2257 29.7932 11.4863 28.2304 9.85733 28.543C6.92514 30.6683 8.03285 36.7943 3.86263 37.7945C2.36395 37.0444 -1.74112 34.6065 -3.76108 31.6685C-5.06427 29.6682 -3.5656 27.2928 -7.34486 27.7928C-10.0816 28.1679 -9.10419 31.3559 -11.3848 32.7937C-13.0138 29.9182 -18.1614 25.5425 -14.1867 22.0419C-13.0789 21.7293 -13.1441 22.6045 -12.1667 22.4169C-8.97386 18.6663 -3.76108 16.8535 -2.91399 10.8525C3.08072 7.78952 8.61929 15.1032 12.3334 9.72736C14.5488 9.66484 14.4837 11.7277 16.3082 12.0402C17.8069 11.7902 18.6539 10.9776 19.892 10.4775C19.501 9.41479 19.501 8.8522 19.892 7.78952C21.7816 6.41429 25.8867 5.53915 27.5157 7.78952C27.4505 10.915 23.6061 10.4775 20.2829 10.4775C20.6739 11.7277 20.6739 13.4155 21.4558 14.2906C22.6287 14.9782 25.3002 14.2281 25.8867 15.4783C24.0622 19.1664 18.4585 19.1664 19.501 25.4799ZM23.0848 26.6676C24.0622 24.4173 26.9944 24.0422 28.2976 22.0419C28.7537 21.9794 29.0143 22.1044 29.0795 22.4169C30.0569 23.7297 29.0143 25.7925 28.2976 26.6676C26.5383 26.6676 24.8441 26.6676 23.0848 26.6676ZM27.9066 136.686C27.3853 135.686 26.9944 135.498 27.5157 134.373C29.0144 134.185 29.8614 134.685 29.9266 135.873C29.1447 136.061 29.1447 136.998 27.9066 136.686ZM43.154 140.937C42.5676 144.312 39.2444 145.187 39.1141 149C35.2697 148.438 35.0742 144.437 31.0995 144C30.513 142.687 30.513 140.311 31.0995 138.999C32.3375 138.436 32.9239 138.811 33.9013 139.374C34.9439 136.436 37.9412 134.185 40.287 137.436C41.4599 137.561 41.525 136.561 42.6979 136.686C44.3921 137.999 46.4772 138.936 47.1288 141.312C45.3695 141.624 44.7179 140.812 43.154 140.937ZM35.5303 33.6063C35.4 32.0435 38.658 32.2311 39.5051 32.8562C39.5051 35.3566 36.2471 35.6691 35.5303 33.6063ZM43.936 42.7953C44.1314 46.1084 38.5277 45.3582 37.5503 43.5454C38.2019 41.2326 41.7205 43.1079 43.936 42.7953ZM47.1288 67.4244C46.3469 68.0495 46.6075 67.3619 45.4998 67.4244C45.2392 65.9866 47.4546 65.9866 47.1288 67.4244ZM49.5397 143.624C49.6048 141.812 53.7099 142.249 54.3615 143.249C54.557 144.687 54.2312 145.687 53.5796 146.312C51.7551 145.875 49.8655 145.5 49.5397 143.624ZM53.5796 149C53.2538 147.75 54.2312 147.813 54.3615 147.063C55.795 147.75 57.6847 148 57.9453 149.75C56.6421 150.313 54.6222 149.813 53.5796 149ZM64.3961 140.561C66.6768 134.185 56.4466 133.435 54.3615 138.624C50.9732 137.686 49.6049 134.748 48.7578 131.31C51.4293 131.06 55.0783 132.81 58.4014 133.248C60.0304 132.623 60.0956 130.497 61.5943 129.81C65.6342 130.31 65.1781 135.061 67.589 137.123C66.8071 138.499 66.0903 139.999 64.3961 140.561ZM49.5397 123.621C49.67 121.746 51.2339 122.121 52.7325 122.496C53.2538 121.183 55.2086 120.308 56.3163 121.746C56.6421 124.621 55.0131 125.622 53.5145 126.747C51.7551 126.122 50.9081 124.621 49.5397 123.621ZM67.198 47.4211C67.2632 46.9835 67.1329 46.7335 66.8071 46.6709C67.589 45.8583 68.5664 45.9208 69.6089 46.2959C69.8044 47.6711 68.4361 47.4836 67.198 47.4211ZM78.0146 53.9847C77.1023 54.6723 75.7991 54.9223 73.9746 54.7348C73.6488 54.0472 73.3231 53.3596 73.1927 52.4219C74.3004 51.2342 76.0598 50.5466 77.1675 49.3589C78.9919 49.6089 78.5359 52.672 78.0146 53.9847ZM114.895 137.436C115.025 134.373 119.652 133.998 120.499 136.686C119.978 139.624 116.198 139.936 114.895 137.436ZM124.539 133.623C123.561 133.685 122.584 133.685 122.128 133.248C121.932 131.497 122.714 130.747 124.539 130.935C124.93 131.998 124.93 132.498 124.539 133.623ZM133.335 34.3564C133.4 36.2942 133.531 38.3571 132.553 39.3573C128.253 37.857 125.451 33.9189 120.108 35.4816C118.088 36.1067 117.241 38.5446 114.504 38.5446C113.266 36.6068 115.351 35.8567 115.677 34.2939C114.243 32.8562 110.073 33.9814 108.444 32.7311C106.294 29.7932 104.6 26.3551 102.059 23.8547C98.5399 24.2923 98.6051 28.1679 94.8258 28.4805C93.7181 27.4803 94.4348 24.7298 92.8058 24.2298C90.5904 24.4173 90.851 26.9802 89.613 28.1054C84.4002 28.7305 78.0797 35.6066 86.4202 37.3569C83.8138 43.3579 82.9016 37.6695 76.3856 38.9197C75.8643 37.732 75.0824 36.8568 75.2127 35.1066C72.6714 35.6066 71.5637 38.4821 67.9799 38.1696C64.8523 37.9195 60.4214 32.3561 57.5544 37.0444C57.2286 39.5448 60.6169 38.4821 59.9653 41.2951C58.8576 42.3577 57.0331 41.8577 55.5344 41.2951C54.1009 41.6076 53.8403 42.9828 52.7325 43.608C50.6474 42.9203 47.9107 42.8578 46.3469 41.6701C46.4772 39.7323 47.8456 38.9822 48.3668 37.4194C47.5849 33.9814 44.1314 33.0437 42.7631 30.1057C44.1966 28.668 46.5423 30.2307 48.7578 29.3556C49.2791 25.5425 47.6501 23.7297 43.545 24.3548C41.3947 24.2298 42.1115 21.4168 39.5051 21.6668C38.9838 21.7919 38.8535 22.3544 38.3322 22.4169C39.8309 24.5423 39.7657 27.9179 38.3322 30.1057C35.1394 31.1059 29.2098 34.544 25.8867 31.6685C26.1473 28.1679 30.4479 30.1682 32.2723 29.7307C32.5981 25.9175 36.1819 22.0419 34.2923 18.5413C32.7936 18.2288 32.0769 19.479 31.0995 18.5413C30.3176 15.2283 32.9891 15.2283 34.2923 13.9155C34.2923 12.6653 33.1194 12.4153 33.5104 10.8525C37.2245 10.1649 40.678 5.66417 44.7179 7.78952C45.174 9.91487 43.6753 10.1024 43.0889 11.2901C43.4798 12.3528 44.0663 13.1654 45.4998 13.2279C46.803 12.2903 47.1288 10.4775 49.0836 10.1649C51.7551 10.665 51.4294 14.0406 52.6674 15.9159C54.8828 16.8535 58.0756 16.2284 59.1182 14.7907C60.8775 14.3531 60.4214 16.1034 61.9201 15.9159C62.8323 16.0409 62.3762 14.7907 63.093 14.7907C63.0278 13.0404 61.073 13.1654 59.9001 12.4778C58.4666 8.72719 59.5092 6.22678 62.311 6.35179C65.7645 6.47681 67.198 13.1029 69.9347 13.6655C72.2153 14.2281 71.7592 12.0402 73.1276 11.7277C75.343 11.7902 75.6037 13.728 77.1023 14.4156C78.4707 14.1656 79.1874 13.2904 81.1422 13.6655C82.1196 18.9164 87.7885 18.1662 90.3949 14.8532C92.9362 15.1032 93.5226 17.2286 95.6077 17.9162C99.4522 16.6035 100.69 12.7904 102.84 9.85237C104.86 10.1649 105.773 9.28978 107.662 9.47731C108.575 7.66451 108.314 4.72652 108.9 2.53865C112.94 3.4138 117.306 3.97639 118.153 7.91455C116.524 9.28978 112.223 8.1646 111.702 10.6025C113.136 16.666 107.793 22.3544 117.697 22.542C117.762 24.4173 115.351 23.8547 115.286 25.605C115.677 28.0429 118.479 28.2304 120.108 29.4806C122.91 29.6682 120.825 25.2924 122.519 24.4798C125.842 24.5423 126.493 27.1052 130.533 26.4176C131.185 24.0422 130.533 22.1044 132.162 20.2916C134.899 20.4791 137.18 20.2291 138.548 19.1664C140.177 19.6665 141.22 20.7292 141.35 22.6045C139.395 23.7922 136.658 24.2298 135.355 26.0425C136.593 28.4179 138.874 34.669 133.335 34.3564ZM150.994 117.433C149.299 117.933 149.234 120.121 148.583 121.683C144.608 120.496 144.478 115.62 140.568 114.37C140.568 113.369 140.438 112.182 140.959 111.682C141.48 111.682 142.002 111.682 142.523 111.682C143.305 112.619 143.696 113.87 143.696 115.557C148.192 117.995 149.69 114.182 152.948 113.244C153.209 113.745 153.795 113.932 154.577 113.995C154.968 114.995 155.034 116.37 154.968 117.87C153.665 117.745 152.688 117.245 150.994 117.433ZM153.795 127.497C152.427 127.184 151.515 125.684 151.776 124.059C151.971 122.809 153.665 123.059 154.968 120.996C155.49 120.121 155.294 118.745 155.75 118.308C157.575 116.62 161.159 116.307 162.592 116.745C161.549 118.37 157.51 128.184 153.795 127.497ZM170.281 164.003C163.178 159.94 161.68 150.501 159.855 141.312C161.94 138.811 165.264 137.498 167.479 135.186C170.672 136.373 171.519 139.749 173.083 142.499C176.667 143.124 177.97 146 182.335 145.937C178.687 152.313 174.972 158.689 170.281 164.003ZM179.859 -9.90089C176.471 -11.0261 175.494 -15.3393 173.018 -16.0269C174.19 -18.0898 173.865 -20.8402 172.236 -22.1529C169.564 -20.9027 169.043 -17.5271 166.241 -16.402C163.635 -17.2771 162.853 -16.0894 161.028 -15.2768C158.878 -15.0267 159.269 -17.2146 157.444 -17.2146C154.708 -16.652 154.186 -14.4642 151.841 -14.5267C150.212 -14.5892 149.756 -16.527 147.801 -16.8395C145.194 -17.2771 143.696 -15.1518 140.568 -16.0894C139.786 -16.9646 141.024 -18.2148 140.568 -19.9651C148.843 -16.0894 152.036 -23.7782 153.014 -30.3418C156.597 -33.3423 160.572 -30.6543 163.439 -28.779C163.96 -28.904 164.091 -29.4666 164.677 -29.5291C165.003 -32.2796 161.875 -32.9047 163.048 -35.2801C167.609 -35.2801 167.479 -30.8419 169.043 -27.9664C170.998 -27.7163 171.714 -28.654 173.083 -27.9664C173.474 -27.0912 173.8 -26.0911 173.865 -24.9034C181.488 -23.9657 179.273 -30.3418 182.27 -33.4048C182.01 -27.2163 183.117 -23.2781 182.27 -18.4023C187.483 -17.0271 189.047 -22.3405 192.305 -24.1532C193.152 -25.591 191.849 -26.2786 191.914 -28.0289C193.999 -25.841 196.996 -29.8417 199.929 -28.0289C202.535 -29.2791 200.971 -31.7795 199.929 -33.4048C205.923 -35.6552 213.938 -34.4049 217.196 -30.7168C216.284 -28.654 214.981 -26.9662 213.221 -25.716C210.745 -26.4036 211.918 -28.9665 209.637 -29.1541C207.618 -29.3416 206.64 -27.0287 205.598 -24.9034C205.402 -22.778 207.878 -23.2781 207.227 -20.6527C203.056 -20.9027 204.294 -26.2786 201.232 -27.5913C195.107 -27.0912 190.871 -17.8397 195.628 -12.9639C194.26 -12.2138 193.282 -9.65085 191.197 -9.08826C188.982 -8.46315 185.333 -10.1509 182.401 -10.276C181.554 -10.276 180.316 -9.77588 179.859 -9.90089ZM189.894 120.121C189.177 120.058 189.047 120.621 188.265 120.496C187.679 119.558 187.418 119.746 187.874 118.558C189.308 118.433 190.22 118.745 189.894 120.121ZM246.844 196.696C244.302 196.446 244.042 194.008 242.869 192.445C232.183 191.007 224.103 184.256 214.785 180.131C212.57 179.13 210.094 179.255 206.77 178.568C200.254 177.255 193.999 174.692 187.092 172.817C186.897 164.128 191.002 156.377 197.518 152.813C199.277 153.876 202.079 153.814 203.969 154.751C204.816 156.189 203.903 156.877 203.578 158.189C205.663 158.752 206.314 160.69 208.008 161.627C210.354 161.815 209.637 159.065 211.983 159.315C214.524 159.44 214.459 163.315 217.196 162.003C219.151 160.252 216.153 158.002 216.805 155.064C218.825 155.189 219.607 154.189 221.627 154.314C222.8 155.814 222.995 158.814 224.82 159.315C226.775 159.815 230.163 158.377 230.033 155.501C229.967 153.876 226.774 152.188 226.84 150.876C226.905 148.125 232.248 146.062 233.681 149.75C234.529 151.938 233.095 155.626 234.463 158.189C236.809 162.503 245.345 163.503 239.285 169.754C239.611 172.254 241.566 173.254 242.087 175.505C242.022 177.443 239.35 176.942 239.285 178.943C240.328 180.943 242.348 181.006 243.26 184.319C243.716 186.006 246.192 187.194 246.844 188.569C246.909 188.757 248.473 194.695 248.473 194.695C248.277 195.571 247.3 196.071 246.844 196.696ZM244.889 108.994C243.455 107.181 240.523 105.493 240.458 103.993C240.263 99.3047 244.954 102.743 246.453 105.556C250.362 105.618 251.47 102.93 255.249 102.868C255.771 106.306 252.057 105.743 250.818 107.493C250.818 109.931 251.144 112.682 249.189 113.244C247.17 113.745 246.453 111.057 244.889 108.994ZM268.933 143.249C267.565 145.187 265.089 145.937 263.329 148.25C261.374 150.813 260.201 156.127 257.334 155.939C253.034 155.626 255.38 148.438 254.533 144.375C253.816 141.124 250.037 137.373 249.711 133.248C249.515 130.56 251.47 128.81 250.102 125.934C251.47 122.058 255.445 120.746 258.507 118.245C262.026 115.307 264.046 109.681 271.344 111.307C273.69 119.495 273.95 136.123 268.933 143.249ZM314.089 322.967C314.349 321.591 315.522 321.154 316.565 320.529C317.542 320.716 317.542 321.779 318.389 322.091C319.497 321.841 319.497 321.466 319.302 320.341C324.645 318.216 325.231 324.029 329.336 324.467C329.792 324.404 329.792 323.904 330.248 323.842C330.053 322.654 329.466 321.779 329.336 320.591C331.291 317.278 338.002 320.591 333.637 323.029C333.571 324.529 334.028 326.467 332.529 326.53C331.552 326.717 331.617 325.78 331.161 325.467C330.053 326.092 329.466 327.155 328.685 328.092C326.469 327.78 325.036 327.905 323.016 328.28C322.82 329.343 323.667 329.405 323.472 330.468C320.344 331.531 318.976 327.405 316.63 326.342C316.174 326.217 315.718 326.155 315.196 326.155C314.349 324.779 313.567 323.467 312.72 322.216C313.176 322.216 313.633 322.529 314.089 322.967ZM321.843 187.069C321.321 189.007 318.845 189.757 318.65 191.32C322.234 196.946 315.978 198.571 315.066 202.072C314.154 205.447 317.021 207.135 315.066 210.948C310.7 212.323 307.573 214.824 305.813 218.637C304.184 219.575 302.099 217.824 300.992 219.387C299.819 220.762 301.773 221.762 301.773 223.2C299.754 224.075 298.711 226.638 298.972 228.576C296.561 230.639 296.691 237.39 289.914 239.64C286.722 237.39 292.26 230.514 293.628 229.139C289.98 222.638 285.093 218.449 279.684 213.574C275.97 202.259 268.281 190.632 269.259 176.255C269.585 171.066 273.624 166.128 275.644 160.877C278.837 152.688 280.662 146.5 282.486 138.186C282.942 135.936 284.571 133.873 284.506 131.998C284.441 130.685 282.877 129.622 282.486 127.747C281.965 125.121 282.095 113.62 282.486 111.182C283.268 106.681 289.067 101.993 292.13 109.244C294.28 109.369 294.932 108.119 297.343 108.494C296.756 116.37 297.082 123.934 300.144 130.435C303.012 136.561 307.768 140.749 311.743 146.187C313.828 149.063 315.457 150.938 315.718 155.064C318.389 158.002 320.996 162.44 320.93 168.941C320.93 170.566 320.344 172.254 320.54 173.942C321.061 178.505 322.755 183.506 321.843 187.069ZM337.09 134.373C337.155 139.436 334.028 141.437 332.268 144.75C327.968 144 324.905 139.499 323.016 136.311C320.605 132.06 319.236 127.309 317.412 121.308C315.522 115.182 314.936 111.932 318.65 107.869C323.081 102.93 331.747 96.8043 335.526 92.8661C335.982 92.4285 338.002 92.4285 339.11 92.8661C342.564 102.493 342.498 115.495 345.496 125.559C343.932 129.685 339.566 131.122 337.09 134.373ZM324.254 82.0518C325.427 80.8016 328.098 80.9266 329.076 79.3638C328.945 82.0518 327.642 86.9276 327.056 90.4907C323.863 90.8658 323.341 88.6779 321.061 88.1778C321.843 85.8649 324.71 85.5524 324.254 82.0518ZM354.357 29.7307C349.601 29.2931 343.932 24.4798 341.521 30.8558C337.025 30.9809 333.832 36.5443 330.314 33.9189C330.77 32.5436 332.724 32.6061 333.506 31.606C331.617 29.9182 327.837 30.1057 325.492 28.918C324.579 29.1056 325.361 30.7933 325.101 31.606C325.622 33.0437 328.098 32.6061 329.141 33.5438C328.75 34.8565 328.294 36.0442 327.121 36.6068C324.645 32.9812 318.52 32.7937 316.695 28.543C319.497 26.9177 325.101 22.4169 320.279 19.2914C315.978 23.4171 313.958 17.5411 309.462 17.3536C306.986 19.1664 308.224 25.1049 311.091 25.4174C311.222 31.0434 301.187 26.9802 303.077 34.2939C299.688 33.6688 296.691 32.7312 296.691 28.918C296.3 28.0429 294.867 28.1054 293.498 28.1679C292.912 23.1046 287.503 21.2292 285.093 25.855C281.574 25.4174 278.055 24.9174 275.905 23.1671C277.013 20.4166 275.644 15.2283 278.316 13.9155C282.291 14.8532 280.987 20.8542 285.94 20.8542C288.155 20.2291 288.416 18.1662 290.371 18.1662C294.671 18.1037 296.43 29.4806 301.969 22.792C302.23 20.9167 300.275 20.9167 299.558 19.2914C298.19 16.1659 299.493 11.6652 295.909 10.4775C293.368 10.79 291.869 9.97739 291.087 8.53966C290.696 6.28928 292.847 6.35179 293.107 4.66402C293.303 1.91356 291.348 0.53833 292.325 -1.89957C294.801 -2.33714 296.887 -3.14978 298.711 -4.21246C302.099 -3.2123 304.25 -1.08693 308.746 -1.14944C309.984 -2.33714 310.635 -5.90024 313.567 -4.21246C313.698 -3.2123 310.635 0.60083 313.958 1.5385C317.477 1.47598 319.236 -0.336823 323.146 -0.0242615C324.384 0.975906 324.645 2.91373 325.948 3.85138C328.098 4.22644 327.968 2.41364 329.988 2.66368C329.141 7.72702 334.158 9.91487 332.79 13.0404C333.376 14.0406 334.093 14.8532 335.982 14.6031C338.133 13.5405 335.591 9.03973 339.175 8.8522C339.436 10.4775 340.413 11.5402 341.586 12.2903C344.193 12.2278 344.193 9.66484 344.779 7.66452C347.32 7.78954 348.232 9.47731 351.621 8.8522C353.901 5.22661 358.072 3.47632 363.675 3.10126C367.78 6.41429 363.284 13.478 367.65 16.541C366.738 18.3538 364.848 19.2289 363.675 20.7917C361.981 20.6041 361.851 18.9789 360.483 18.4788C356.247 21.9794 364.197 26.2301 366.086 21.9169C367.715 22.0419 368.171 23.2296 369.67 23.4796C371.951 23.4796 371.364 20.7292 372.081 19.2289C374.557 22.6045 377.098 25.9175 379.705 29.2306C379.249 31.2309 380.812 32.7937 379.705 34.2314C376.577 33.8563 374.622 32.4186 372.081 31.5435C371.885 29.6682 373.71 29.7307 374.101 28.4805C373.905 27.6678 373.254 27.2302 372.928 26.5426C370.061 28.6055 366.412 28.0429 363.741 26.1676C359.505 27.9179 358.984 30.1057 354.357 29.7307ZM364.783 90.5532C364.783 89.3655 363.675 88.4279 363.61 87.4902C363.415 85.1773 366.608 82.6144 364.001 80.1765C361.786 80.114 362.437 82.7394 360.808 83.2395C357.55 83.1145 358.202 78.6137 360.026 77.4885C361.786 77.4885 362.503 78.4262 363.61 79.0513C365.826 78.4887 366.673 76.6134 369.214 76.3634C371.234 78.3012 372.928 80.489 375.6 81.7392C374.557 86.9901 371.364 90.2406 368.367 93.6787C368.497 99.3047 365.37 101.805 362.763 104.868C356.508 99.9923 364.718 96.7417 364.783 90.5532ZM399.644 112.869C398.145 113.369 395.473 110.119 392.802 111.744C390 114.87 394.3 118.183 397.233 117.12C395.408 119.996 399.057 121.246 398.015 123.246C395.93 124.621 395.604 121.621 393.193 122.121C391.433 122.246 391.694 124.246 390.782 125.184C382.05 126.309 372.211 128.434 363.936 128.622C365.891 124.184 367.259 119.245 373.124 118.62C372.537 123.121 380.291 127.559 380.747 123.246C380.943 121.371 379.053 121.996 377.554 120.183C377.163 119.683 377.098 117.808 376.772 117.495C375.795 116.558 373.58 116.933 373.124 115.557C375.404 112.369 375.339 106.868 380.747 106.681C380.747 107.056 381.203 106.993 381.529 107.056C381.725 114.432 387.133 112.807 389.935 108.619C389.414 105.306 390.782 103.805 392.346 102.43C392.215 99.6172 392.346 97.0543 393.584 95.4915C396.06 96.3667 394.952 98.7421 395.995 100.492C397.233 102.555 400.556 102.868 401.207 105.118C401.989 107.744 399.969 108.994 399.644 112.869ZM400.035 -46.0319C398.275 -46.4069 397.168 -47.3446 395.604 -47.9697C396.777 -52.8455 404.856 -49.5949 400.035 -46.0319ZM404.465 23.6046C403.293 23.6672 402.25 23.6672 402.445 22.4795C403.162 21.7293 403.944 22.3544 404.856 22.4795C404.661 22.7295 404.465 23.0421 404.465 23.6046ZM415.673 25.4799C415.477 27.4803 411.959 27.2302 410.851 26.2301C410.33 22.8545 415.217 23.1671 415.673 25.4799ZM411.698 114.745C410.721 111.807 411.959 107.869 412.48 105.118C414.63 105.618 415.999 106.868 417.302 108.181C415.934 110.932 414.63 113.557 411.698 114.745ZM418.931 100.555C416.781 100.68 415.086 100.367 413.718 99.8047C418.149 94.9914 409.027 79.5514 418.931 78.2387C420.43 85.2398 420.886 94.1163 418.931 100.555ZM428.118 -11.4011C426.88 -11.5262 425.903 -12.9639 426.946 -14.0891C428.379 -14.2141 428.77 -12.0888 428.118 -11.4011ZM435.351 -14.0891C437.697 -15.2143 440.173 -13.4015 440.173 -11.0261C439.065 -11.1511 435.742 -12.0888 435.351 -14.0891ZM442.975 102.43C442.845 100.367 446.233 100.555 446.168 102.43C445.581 103.055 443.561 103.055 442.975 102.43ZM444.995 -5.65019C445.777 -6.2753 447.341 -5.33765 447.406 -4.08743C446.168 -3.08727 444.93 -4.33748 444.995 -5.65019ZM427.727 -43.3439C425.121 -42.5938 419.843 -38.9682 419.713 -44.094C419.648 -46.5945 422.254 -46.2194 422.906 -48.7198C422.645 -51.7828 418.084 -51.7828 415.673 -50.6576C414.435 -51.8453 416.455 -53.7831 415.282 -54.9083C410.525 -56.3461 409.613 -52.0954 405.638 -52.5955C403.032 -52.908 401.859 -56.9712 398.406 -57.5963C395.799 -58.0964 394.822 -56.3461 391.173 -56.8462C389.088 -58.1589 389.088 -63.1597 390.782 -64.91C393.519 -63.8473 396.581 -65.2225 399.188 -64.91C401.403 -64.6599 402.185 -63.1597 403.618 -62.9722C407.789 -62.4096 408.701 -64.8475 412.024 -65.6601C412.089 -65.5976 412.35 -65.7226 412.415 -65.6601C414.565 -63.2222 415.999 -59.7216 417.628 -56.8462C421.537 -58.0964 422.124 -62.5346 426.033 -63.7848C430.008 -62.2846 436.589 -61.3469 434.439 -55.3459C433.396 -53.9707 431.767 -55.2834 430.464 -54.5958C430.269 -52.4704 432.354 -52.5955 433.266 -51.5328C439.978 -52.5329 440.825 -59.159 442.063 -65.4101C442.519 -65.3476 442.779 -65.4726 442.845 -65.7851C448.057 -63.8473 453.401 -62.097 454.052 -55.7835C457.831 -55.6585 460.959 -55.3459 464.478 -54.2207C464.282 -47.0945 455.616 -48.0947 452.879 -43.4689C447.08 -43.2814 435.156 -45.5943 427.727 -43.3439ZM463.826 -6.77538C462.002 -5.96275 458.483 -12.5888 458.613 -13.339C458.874 -14.9017 461.154 -16.2769 462.653 -15.2768C464.412 -13.9641 463.761 -8.6507 463.826 -6.77538ZM455.42 116.683C454.704 116.057 454.899 114.62 454.182 113.995C455.551 112.807 458.287 111.119 456.593 108.244C453.075 108.994 453.857 113.87 449.752 113.995C448.513 111.057 450.924 108.494 450.924 105.556C454.117 105.243 456.659 102.43 458.939 102.493C458.548 103.493 458.157 105.806 458.939 106.743C460.373 108.119 462.262 107.681 464.543 107.493C465.26 108.431 465.911 109.494 466.172 110.932C461.155 111.432 461.154 116.808 455.42 116.683ZM468.257 103.243C466.302 101.68 463.5 100.867 462.653 98.242C463.109 97.8044 464.087 97.8044 465.064 97.8669C465.455 100.055 469.104 101.055 468.257 103.243ZM477.444 -5.27513C476.076 -4.65002 472.362 -4.65002 470.994 -5.27513C470.538 -8.33813 475.164 -7.90056 476.988 -7.58801C477.053 -6.65036 477.77 -6.46283 477.444 -5.27513ZM475.881 -53.7206C478.748 -53.3456 486.111 -54.0332 487.479 -51.0327C485.133 -47.2821 476.011 -48.7823 475.881 -53.7206ZM496.276 -12.5888C495.233 -12.4638 494.256 -12.4638 494.647 -13.714C495.754 -13.839 496.406 -13.589 496.276 -12.5888ZM497.514 -129.171C497.318 -130.483 497.644 -131.358 499.143 -131.108C498.882 -130.171 498.752 -129.108 497.514 -129.171ZM511.588 89.7406C509.959 89.8656 509.568 87.3027 510.35 86.3025C512.37 86.1775 512.891 87.4277 513.152 88.9904C512.37 88.9904 512.631 90.0531 511.588 89.7406ZM514.781 -109.167C513.413 -108.917 513.348 -110.543 513.999 -111.105C515.367 -111.355 515.433 -109.73 514.781 -109.167ZM523.969 86.3025C522.34 86.1775 522.209 84.6772 523.187 83.9896C524.229 84.0521 523.969 85.3023 523.969 86.3025ZM519.994 -11.0261C524.555 -11.5887 524.294 -5.65019 521.167 -4.90007C519.994 -6.3378 518.495 -9.3383 519.994 -11.0261ZM519.994 -4.08743C522.209 -3.39983 522.405 -0.0867767 520.776 1.28845C518.039 1.22595 518.43 -3.08727 519.994 -4.08743ZM523.578 94.3663C521.883 93.3037 520.515 91.9284 519.538 90.1156C521.167 88.3028 523.382 89.428 525.989 88.5529C527.227 91.2408 524.294 92.366 523.578 94.3663ZM562.478 82.0518C561.957 80.4265 562.478 80.114 563.26 78.9888C564.694 79.6764 565.28 81.1142 565.671 82.8644C564.042 83.177 563.781 82.1143 562.478 82.0518ZM572.122 -57.9713C569.971 -57.7213 569.385 -58.909 568.538 -59.9092C568.929 -61.5969 569.906 -62.6596 570.558 -64.1599C571.731 -63.2847 574.402 -63.7848 574.533 -61.847C573.555 -60.6593 571.144 -60.9718 572.122 -57.9713ZM564.107 -69.5358C562.674 -69.1607 563.846 -66.1602 562.087 -66.0977C558.308 -66.5978 555.571 -71.5986 556.483 -74.1615C558.894 -72.9113 560.067 -70.6609 562.869 -71.0985C566.127 -71.5986 566.779 -77.2245 570.884 -75.7243C572.513 -75.0992 573.36 -72.9113 574.468 -70.3484C571.666 -69.1607 567.952 -70.1609 564.107 -69.5358ZM586.131 -59.159C580.983 -57.4087 581.049 -63.7848 584.111 -65.3476C584.241 -62.6596 586.327 -61.972 586.131 -59.159ZM586.131 -80.2875C586.587 -78.7873 587.174 -77.4746 586.913 -75.2867C583.785 -75.7243 580.527 -76.0993 578.898 -77.9746C579.029 -79.975 581.635 -79.6624 582.873 -80.6626C581.831 -86.9136 587.695 -85.1008 590.497 -83.3505C589.454 -82.0378 586.718 -82.1628 586.131 -80.2875Z" fill="#172E07" fill-opacity="0.16"/>
</g>
<g id="Frame 56">
<g id="Frame 55">
<g id="Frame 53">
<g id="sms">
<g id="vuesax/linear/sms">
<g id="sms_2">
<path id="Vector_2" d="M17 21H7C4 21 2 19.5 2 16V9C2 5.5 4 4 7 4H17C20 4 22 5.5 22 9V16C22 19.5 20 21 17 21Z" stroke="white" stroke-width="1.5" stroke-miterlimit="10" stroke-linecap="round" stroke-linejoin="round"/>
<path id="Vector_3" d="M17 9.5L13.87 12C12.84 12.82 11.15 12.82 10.12 12L7 9.5" stroke="white" stroke-width="1.5" stroke-miterlimit="10" stroke-linecap="round" stroke-linejoin="round"/>
</g>
</g>
</g>
</g>
</g>
</g>
</g>
</g>
</g>
</g>
<defs>
<clipPath id="clip0_0_1">
<rect width="375" height="443" fill="white" transform="translate(-40 -194)"/>
</clipPath>
<clipPath id="clip1_0_1">
<rect x="-24" y="-138" width="343" height="331" rx="16" fill="white"/>
</clipPath>
</defs>
</svg>
