<svg width="124" height="48" viewBox="0 0 124 48" fill="none" xmlns="http://www.w3.org/2000/svg">
<g clip-path="url(#clip0_226_115)">
<path d="M36.8343 42.4769C33.8032 40.6837 29.9628 38.9909 25.6675 37.6561C16.9226 34.9384 8.88982 34.5118 5.26526 36.2804C5.77506 37.05 6.33131 37.7863 6.93001 38.4857C7.80825 38.1756 9.11167 37.9499 10.8398 37.905C14.514 37.8099 19.5007 38.5451 24.8725 40.2144C28.3984 41.3101 31.5593 42.6434 34.1562 44.0414C35.0874 43.5802 35.982 43.0569 36.8343 42.4769Z" fill="white"/>
<path fill-rule="evenodd" clip-rule="evenodd" d="M24.1116 45.3209C35.9603 45.3209 45.5442 35.7636 45.5442 24C45.5442 12.2365 35.9603 2.67907 24.1116 2.67907C12.263 2.67907 2.67907 12.2365 2.67907 24C2.67907 35.7636 12.263 45.3209 24.1116 45.3209ZM24.1116 48C37.4282 48 48.2233 37.2549 48.2233 24C48.2233 10.7452 37.4282 0 24.1116 0C10.7951 0 0 10.7452 0 24C0 37.2549 10.7951 48 24.1116 48Z" fill="white"/>
<path d="M13.1721 10.7163H15.8512V36.3907H13.1721V10.7163Z" fill="white"/>
<path d="M14.5116 11.1628V8.48373L22.7721 15.1814V17.8605L14.5116 11.1628Z" fill="white"/>
<path d="M14.5116 24.5581V21.8791L22.7721 28.5767V31.2558L14.5116 24.5581Z" fill="white"/>
<path d="M14.5116 20.093V17.4139L22.7721 24.1116V26.7907L14.5116 20.093Z" fill="white"/>
<path d="M14.5116 15.6279V12.9489L22.7721 19.6465V22.3256L14.5116 15.6279Z" fill="white"/>
<path d="M14.5117 11.1628V8.48373L6.25122 15.1814V17.8605L14.5117 11.1628Z" fill="white"/>
<path d="M14.5117 24.5581V21.8791L6.25122 28.5767V31.2558L14.5117 24.5581Z" fill="white"/>
<path d="M14.5117 20.093V17.4139L6.25122 24.1116V26.7907L14.5117 20.093Z" fill="white"/>
<path d="M14.5117 15.6279V12.9489L6.25122 19.6465V22.3256L14.5117 15.6279Z" fill="white"/>
<path d="M31.2559 15.4047H33.9349V41.0791H31.2559V15.4047Z" fill="white"/>
<path d="M32.5953 15.8512V13.1721L40.8558 19.8698V22.5488L32.5953 15.8512Z" fill="white"/>
<path d="M32.5953 29.2465V26.5674L40.8558 33.2651V35.9442L32.5953 29.2465Z" fill="white"/>
<path d="M32.5953 24.7814V22.1023L40.8558 28.8V31.4791L32.5953 24.7814Z" fill="white"/>
<path d="M32.5953 20.3163V17.6372L40.8558 24.3349V27.014L32.5953 20.3163Z" fill="white"/>
<path d="M32.5953 15.8512V13.1721L24.3348 19.8698V22.5488L32.5953 15.8512Z" fill="white"/>
<path d="M32.5953 29.2465V26.5674L24.3348 33.2651V35.9442L32.5953 29.2465Z" fill="white"/>
<path d="M32.5953 24.7814V22.1023L24.3348 28.8V31.4791L32.5953 24.7814Z" fill="white"/>
<path d="M32.5953 20.3163V17.6372L24.3348 24.3349V27.014L32.5953 20.3163Z" fill="white"/>
<path d="M69.5754 25.0046V24.0045L71.2186 23.6115V13.8954L69.5754 13.5025V12.5023H75.1658C76.8208 12.5023 78.0592 12.8059 78.8807 13.4132C79.7142 14.0086 80.131 14.8599 80.131 15.9672C80.131 16.7174 79.9166 17.3723 79.488 17.9319C79.0593 18.4915 78.4699 18.8845 77.7198 19.1107L80.2203 23.6294L81.9349 24.058V25.0046H77.5948L74.755 19.5929H74.1299V23.6115L75.6837 24.0045V25.0046H69.5754ZM74.1299 18.3427H74.6478C75.4812 18.3427 76.1184 18.1284 76.5589 17.6997C76.9994 17.2711 77.2197 16.6936 77.2197 15.9672C77.2197 15.3124 76.9936 14.7885 76.541 14.3955C76.0885 14.0026 75.4515 13.8061 74.6299 13.8061H74.1299V18.3427Z" fill="white"/>
<path d="M82.7719 25.0046V24.0045L84.415 23.6115V13.8954L82.7719 13.5025V12.5023H92.2558V16.1637H91.202L90.4876 13.8776H87.3263V18.0212L90.6483 17.7176V19.4858L87.3263 19.2179V23.6294H90.5233L91.7378 21.1468H92.7916L92.2558 25.0046H82.7719Z" fill="white"/>
<path d="M94.4685 25.0046V24.0045L96.1117 23.6115V13.8954L94.4685 13.5025V12.5023H103.952V16.1637H102.899L102.184 13.8776H99.0229V18.0212L102.345 17.7176V19.4858L99.0229 19.2179V23.6294H102.22L103.434 21.1468H104.488L103.952 25.0046H94.4685Z" fill="white"/>
<path d="M80.9883 41.5256V41.2791L81.4919 41.1612L82.794 37.7481H83.1798L84.4014 41.1666L84.8944 41.2791V41.5256H83.3191V41.2791L83.7156 41.188L83.4584 40.4647H82.1456L81.867 41.172L82.3385 41.2791V41.5256H80.9883ZM82.2635 40.1486H83.3405L82.8154 38.6858L82.2635 40.1486Z" fill="white"/>
<path d="M86.0114 41.5256V41.2791L86.5043 41.1612V38.1392L86.0114 38.0213V37.7749H87.5277C87.7206 37.7749 87.8974 37.7909 88.0582 37.8231C88.2189 37.8517 88.3743 37.9035 88.5243 37.9785C88.6779 38.0499 88.7976 38.1589 88.8833 38.3053C88.9726 38.4482 89.0173 38.6215 89.0173 38.8251C89.0173 39.3002 88.7708 39.6216 88.2778 39.7895L89.0226 41.1666L89.4941 41.2845V41.5256H88.519L87.6349 39.8699H87.1634V41.1612L87.6563 41.2791V41.5256H86.0114ZM87.1634 39.5484H87.4741C87.7349 39.5484 87.9439 39.4841 88.101 39.3555C88.2618 39.2269 88.3421 39.0465 88.3421 38.8144C88.3421 38.5857 88.2636 38.4125 88.1064 38.2946C87.9492 38.1732 87.7385 38.1124 87.4741 38.1124H87.1634V39.5484Z" fill="white"/>
<path d="M90.6405 41.5256V41.2791L91.1335 41.1612V38.1392L90.6405 38.0213V37.7749H92.1783C93.0499 37.7749 93.4857 38.0785 93.4857 38.6858C93.4857 38.8822 93.4267 39.0537 93.3089 39.2001C93.1946 39.3466 93.0374 39.452 92.8373 39.5163V39.527C93.1303 39.5806 93.3553 39.6895 93.5125 39.8538C93.6732 40.0181 93.7536 40.2235 93.7536 40.47C93.7536 40.7915 93.6339 41.0487 93.3946 41.2416C93.1553 41.4309 92.832 41.5256 92.4248 41.5256H90.6405ZM91.7925 41.1987H92.2587C92.5194 41.1987 92.7213 41.1362 92.8641 41.0112C93.007 40.8862 93.0785 40.7058 93.0785 40.47C93.0785 40.2521 93.0034 40.0771 92.8534 39.9449C92.707 39.8128 92.4998 39.7467 92.2319 39.7467H91.7925V41.1987ZM91.7925 39.4091H92.0979C92.3051 39.4091 92.4748 39.3502 92.6069 39.2323C92.7427 39.1108 92.8105 38.9447 92.8105 38.734C92.8105 38.5197 92.7427 38.3607 92.6069 38.2571C92.4748 38.1535 92.2944 38.1017 92.0658 38.1017H91.7925V39.4091Z" fill="white"/>
<path d="M97.0026 37.6945C97.292 37.6945 97.5474 37.7427 97.7688 37.8392C97.9903 37.9356 98.1778 38.0696 98.3314 38.241C98.485 38.4125 98.6011 38.6179 98.6797 38.8572C98.7583 39.0966 98.7976 39.3591 98.7976 39.6449C98.7976 39.9342 98.7583 40.1986 98.6797 40.4379C98.6047 40.6772 98.4904 40.8844 98.3368 41.0594C98.1868 41.2309 97.9992 41.3648 97.7742 41.4613C97.5527 41.5577 97.2955 41.606 97.0026 41.606C96.6918 41.606 96.4222 41.5542 96.1935 41.4506C95.9685 41.347 95.7828 41.2077 95.6363 41.0326C95.4898 40.854 95.3809 40.6451 95.3095 40.4057C95.2416 40.1664 95.2076 39.9092 95.2076 39.6342C95.2076 39.3663 95.2434 39.1162 95.3148 38.884C95.3862 38.6483 95.4952 38.4429 95.6417 38.2678C95.7881 38.0892 95.9739 37.9499 96.1989 37.8499C96.4275 37.7463 96.6954 37.6945 97.0026 37.6945ZM97.0026 38.0106C96.6383 38.0106 96.3614 38.1643 96.1721 38.4715C95.9864 38.7751 95.8935 39.168 95.8935 39.6502C95.8935 40.1611 95.9917 40.5629 96.1882 40.8558C96.3882 41.1452 96.6597 41.2898 97.0026 41.2898C97.3455 41.2898 97.6152 41.1452 97.8117 40.8558C98.0117 40.5629 98.1118 40.1611 98.1118 39.6502C98.1118 39.168 98.0171 38.7751 97.8278 38.4715C97.642 38.1643 97.367 38.0106 97.0026 38.0106Z" fill="white"/>
<path d="M100.129 41.5256V41.2791L100.622 41.1612V38.1392L100.129 38.0213V37.7749H101.645C101.838 37.7749 102.015 37.7909 102.176 37.8231C102.336 37.8517 102.492 37.9035 102.642 37.9785C102.795 38.0499 102.915 38.1589 103.001 38.3053C103.09 38.4482 103.135 38.6215 103.135 38.8251C103.135 39.3002 102.888 39.6216 102.395 39.7895L103.14 41.1666L103.612 41.2845V41.5256H102.636L101.752 39.8699H101.281V41.1612L101.774 41.2791V41.5256H100.129ZM101.281 39.5484H101.592C101.852 39.5484 102.061 39.4841 102.219 39.3555C102.379 39.2269 102.46 39.0465 102.46 38.8144C102.46 38.5857 102.381 38.4125 102.224 38.2946C102.067 38.1732 101.856 38.1124 101.592 38.1124H101.281V39.5484Z" fill="white"/>
<path d="M108.868 37.6945C109.283 37.6945 109.631 37.757 109.913 37.8821V38.8947H109.667L109.42 38.1017C109.281 38.0696 109.12 38.0535 108.938 38.0535C108.048 38.0535 107.604 38.5858 107.604 39.6502C107.604 40.7147 108.013 41.247 108.831 41.247C108.952 41.247 109.061 41.2434 109.158 41.2362C109.254 41.2291 109.342 41.2184 109.42 41.2041L109.731 40.3575H109.977L109.94 41.3702C109.89 41.3988 109.818 41.4274 109.726 41.4559C109.633 41.4845 109.531 41.5095 109.42 41.5309C109.313 41.5524 109.2 41.5702 109.083 41.5845C108.968 41.5988 108.863 41.606 108.766 41.606C108.163 41.606 107.706 41.4381 107.395 41.1023C107.084 40.7665 106.929 40.2825 106.929 39.6502C106.929 39.018 107.089 38.534 107.411 38.1982C107.736 37.8624 108.222 37.6945 108.868 37.6945Z" fill="white"/>
<path d="M111.089 41.5256V41.2791L111.593 41.1612L112.895 37.7481H113.281L114.502 41.1666L114.995 41.2791V41.5256H113.42V41.2791L113.817 41.188L113.559 40.4647H112.247L111.968 41.172L112.44 41.2791V41.5256H111.089ZM112.365 40.1486H113.442L112.916 38.6858L112.365 40.1486Z" fill="white"/>
<path d="M116.112 41.5256V41.2791L116.605 41.1612V38.1392L116.112 38.0213V37.7749H117.629C117.822 37.7749 117.998 37.7909 118.159 37.8231C118.32 37.8517 118.475 37.9035 118.625 37.9785C118.779 38.0499 118.899 38.1589 118.984 38.3053C119.074 38.4482 119.118 38.6215 119.118 38.8251C119.118 39.3002 118.872 39.6216 118.379 39.7895L119.124 41.1666L119.595 41.2845V41.5256H118.62L117.736 39.8699H117.264V41.1612L117.757 41.2791V41.5256H116.112ZM117.264 39.5484H117.575C117.836 39.5484 118.045 39.4841 118.202 39.3555C118.363 39.2269 118.443 39.0465 118.443 38.8144C118.443 38.5857 118.365 38.4125 118.207 38.2946C118.05 38.1732 117.84 38.1124 117.575 38.1124H117.264V39.5484Z" fill="white"/>
<path d="M120.742 41.5256V41.2791L121.235 41.1612V38.1392L120.742 38.0213V37.7749H123.533V38.8733H123.281L123.051 38.1339L121.894 38.091V39.468L123.051 39.3662V39.8431L121.894 39.7467V41.2094L123.153 41.1666L123.426 40.3682H123.678L123.635 41.5256H120.742Z" fill="white"/>
<path d="M80.9191 35.2744V34.5868L82.1224 34.3044L85.0571 26.6177H86.1254L88.8759 34.3044L90.0547 34.5868V35.2744H85.8921V34.5868L86.7639 34.378L86.2359 32.9046H83.6573L83.1047 34.3412L84.1362 34.5868V35.2744H80.9191ZM83.9888 32.0573H85.9289L84.9712 29.4419L83.9888 32.0573Z" fill="white"/>
<path d="M90.4404 35.2744V34.5868L91.5701 34.3167V27.6368L90.4404 27.3667V26.6791H94.7013V27.3667L93.5716 27.6368V34.3289H95.8064L96.6414 32.6221H97.329L96.9606 35.2744H90.4404Z" fill="white"/>
<path d="M97.8512 35.2744V34.5868L98.9809 34.3167V27.6368L97.8512 27.3667V26.6791H102.112V27.3667L100.982 27.6368V34.3167L102.112 34.5868V35.2744H97.8512ZM101.253 30.989L103.905 27.6123L103.156 27.3667V26.6791H106.348V27.3667L105.182 27.6368L103.119 30.2032L105.747 34.0711L106.901 34.5868V35.2744H104.052L101.253 30.989Z" fill="white"/>
<path d="M107.192 35.2744V34.5868L108.322 34.3167V27.6368L107.192 27.3667V26.6791H113.712V29.1963H112.988L112.497 27.6246H110.323V30.4733L112.607 30.2646V31.4802L110.323 31.296V34.3289H112.521L113.356 32.6221H114.081L113.712 35.2744H107.192Z" fill="white"/>
<path d="M114.927 35.2744V34.5868L116.056 34.3167V27.6368L114.927 27.3667V26.6791H118.77C119.908 26.6791 120.759 26.8878 121.324 27.3053C121.897 27.7145 122.184 28.2999 122.184 29.0612C122.184 29.5769 122.036 30.0272 121.742 30.4119C121.447 30.7966 121.042 31.0667 120.526 31.2223L122.245 34.3289L123.424 34.6236V35.2744H120.44L118.488 31.5539H118.058V34.3167L119.126 34.5868V35.2744H114.927ZM118.058 30.6943H118.414C118.987 30.6943 119.425 30.547 119.728 30.2523C120.031 29.9576 120.182 29.5606 120.182 29.0612C120.182 28.6109 120.027 28.2508 119.716 27.9807C119.405 27.7105 118.967 27.5754 118.402 27.5754H118.058V30.6943Z" fill="white"/>
<path d="M58.2698 28.0409V26.7907H65.9498V28.0409L64.0744 28.4428L66.8651 36.614L69.5888 26.7907H72.5581L75.8623 36.6363L78.0279 28.5321L76.2195 28.0409V26.7907H81.8456V28.0409L79.7916 28.5321L75.9963 42.5749H73.8307L70.08 31.2782L66.8875 42.5749H64.8558L60.2121 28.5098L58.2698 28.0409Z" fill="white"/>
<path d="M55.3876 14.6545V10.1581H68.4313V14.6545H67.1375L66.2679 11.7913H63.638V23.3503L65.5892 23.8169V25.0047H58.2296V23.8169L60.1809 23.3503V11.7913H57.5297L56.6601 14.6545H55.3876Z" fill="white"/>
</g>
<defs>
<clipPath id="clip0_226_115">
<rect width="123.684" height="48" fill="white"/>
</clipPath>
</defs>
</svg>
